<svg xmlns="http://www.w3.org/2000/svg" width="192" height="176" viewBox="0 0 144 132"><path fill="currentColor" fill-rule="evenodd" d="M6 22.48c0-4.539 17.043-35.71 60.996-16.02 11.633-1.3 37.938-5.48 47.383 9.43-24.387 4.2-20.848 6.59-20.848 6.59s18.567 8.563 34.746 72.063c7.192 7.234 13.188 13.703 7.403 23.578-4.899-6.726-9.063-11.129-9.063-11.129l-8.898 25.418s-8.114-5.273-3.34-37.867c-8.23-12.563-36.926-40.5-51.93-47.336 0 8.852-1.27 14.746 11.2 31.137-6.653 4.785-32.141-14.258-29.583-37.531C32.312 36.07 6 27.02 6 22.48zm0 0"/></svg>