<svg xmlns="http://www.w3.org/2000/svg" width="192" height="144" viewBox="0 0 144 108"><path fill="currentColor" fill-rule="evenodd" d="M83.078 0v16.617H69.23v83.074H55.383V16.617H41.539V0zM32.875 0l14.234 99.691H33.316l-3.144-22.777H17.023L13.79 99.691H0L15.848 0zm71.879 0s10.332 60.758 11.555 72c1.039-11.082 11.28-72 11.28-72H144v99.691h-11.078l-.012-66.437-.12 1.066c-1.688 12.887-10.942 65.371-10.942 65.371h-9.61s-10.82-52.34-12.422-65.359l-.132-1.094c-.098.399-.66 5.192.007 66.453H88.617V0zM24.102 18.348h-.348c-.754 6.656-1.84 17.004-2.594 22.777l-2.719 20.7h10.43l-2.398-20.848c-.762-6.07-1.73-15.973-2.371-22.63zm0 0"/></svg>