<svg xmlns="http://www.w3.org/2000/svg" width="192" height="139" viewBox="0 0 144 104.25"><path fill="currentColor" fill-rule="evenodd" d="M143.672 0v99.238H.328V0zm-60.55 38.594c-2.345 0-4.376.547-6.106 1.636-1.73 1.094-3.168 2.633-4.32 4.618-1.15 1.984-2.016 4.347-2.59 7.09-.575 2.734-.864 5.734-.864 8.988 0 3.261.278 6.254.836 8.996.555 2.738 1.41 5.094 2.559 7.055 1.152 1.964 2.593 3.5 4.316 4.59 1.73 1.09 3.766 1.636 6.11 1.636 2.335 0 4.374-.547 6.101-1.637 1.727-1.09 3.168-2.625 4.32-4.59 1.153-1.96 2-4.316 2.559-7.054.559-2.742.836-5.734.836-8.996 0-3.254-.277-6.254-.836-8.989-.559-2.742-1.406-5.105-2.559-7.09-1.152-1.984-2.593-3.523-4.32-4.617-1.727-1.09-3.746-1.636-6.043-1.636zm33.077 0c-2.34 0-4.37.547-6.101 1.636-1.73 1.094-3.168 2.633-4.32 4.618-1.15 1.984-2.016 4.347-2.59 7.09-.579 2.734-.864 5.734-.864 8.988 0 3.261.278 6.254.836 8.996.555 2.738 1.41 5.094 2.555 7.055 1.156 1.964 2.597 3.5 4.32 4.59 1.73 1.09 3.766 1.636 6.11 1.636 2.335 0 4.375-.547 6.101-1.637 1.727-1.09 3.168-2.625 4.32-4.59 1.149-1.96 2-4.316 2.559-7.054.555-2.742.836-5.734.836-8.996 0-3.254-.281-6.254-.836-8.989-.559-2.742-1.41-5.105-2.559-7.09-1.152-1.984-2.593-3.523-4.32-4.617-1.726-1.09-3.746-1.636-6.047-1.636zm-52.469 0h-5.51c-1.79 1.906-5.399 3.613-7.324 5.12-1.926 1.509-4.079 3.016-6.461 4.528l4.136 5.512c1.27-.871.825-1.352 1.582-1.852.754-.496 1.47-.96 2.141-1.394.441-.32.895-.649 1.375-.988.473-.336 1.316-.844 1.793-1.278V77.22l-8.313.062-.12 5.418h22.214l-.058-5.48H63.73zm19.333 6.433c1.82 0 3.28 1.309 4.374 3.93 1.09 2.621 1.641 6.61 1.641 11.969-.058 5.324-.598 9.293-1.668 11.914-1.078 2.62-2.504 3.93-4.289 3.93-1.871 0-3.344-1.31-4.437-3.93-1.09-2.621-1.637-6.59-1.637-11.914 0-5.36.547-9.348 1.637-11.969 1.093-2.621 2.55-3.93 4.379-3.93zm33.082 0c1.82 0 3.28 1.309 4.375 3.93 1.09 2.621 1.64 6.61 1.64 11.969-.062 5.324-.597 9.293-1.668 11.914-1.078 2.62-2.508 3.93-4.293 3.93-1.867 0-3.344-1.31-4.433-3.93-1.094-2.621-1.637-6.59-1.637-11.914 0-5.36.543-9.348 1.637-11.969 1.09-2.621 2.55-3.93 4.379-3.93zm-88.25-34c-9.137 0-16.54 7.403-16.54 16.54 0 9.132 7.403 16.538 16.54 16.538 9.132 0 16.539-7.406 16.539-16.539 0-9.136-7.407-16.539-16.54-16.539zm0 0"/></svg>