<svg xmlns="http://www.w3.org/2000/svg" width="172" height="192" viewBox="0 0 129 144"><path fill="currentColor" fill-rule="evenodd" d="M86.684.332c1.996 0 3.617 1.734 3.617 3.535l-.016 81.82c3.559 2.524 13.684 8.622 20.426 1.915 8.305-8.254-.75-15.18-.75-31.348l.039 1.379a10.717 10.717 0 0 1-6.8-10.031V30.465c0-4.434 2.62-8.238 6.46-9.895l-.012-13.785h12.903l.004 13.797A10.716 10.716 0 0 1 129 30.465v17.137c0 4.644-2.879 8.605-7.023 10.12-1.137 11.403 6.578 26.106-.516 36.176-10.344 13.403-26.465 6.954-31.148 4.668l-.012 24.317h19.347v19.351H0v-19.351h19.352V3.867c0-1.949 1.48-3.535 3.613-3.535zM74.176 19.684h-38.7v38.699h38.7zm0 0"/></svg>