<svg xmlns="http://www.w3.org/2000/svg" width="192" height="177" viewBox="0 0 144 132.75"><path fill="currentColor" fill-rule="evenodd" d="M38.703 87.7c0-3.388 2.965-6.118 6.652-6.118 3.66 0 6.653 2.73 6.653 6.117 0 8.43 8.492 16.078 20.008 16.125 11.511-.047 19.964-7.695 19.992-16.125.035-3.386 2.976-6.117 6.66-6.117 3.66 0 6.672 2.73 6.672 6.117-.117 16.125-15.41 28.297-33.324 28.309-17.907-.012-33.239-12.184-33.313-28.309zm21.285-57.778c4.02-7.387 8.867-10.387 12.055-10.227 3.144-.16 7.992 2.84 12.016 10.227 3.41 6.215 5.742 15.996 6.379 25.828H53.593c.633-9.832 2.972-19.613 6.394-25.828m67.649 27.476c-1.149-1.058-2.774-1.648-4.418-1.648H102.82C101.25 31.578 91.695 9.727 72.043 8.297c-19.7 1.43-29.27 23.281-30.832 47.453H20.805c-1.64 0-3.262.59-4.422 1.648-1.149 1.075-1.824 2.516-1.824 4.047l-4.786 65.621c0 1.504.684 2.973 1.825 4.02a6.659 6.659 0 0 0 4.422 1.664h111.988c1.672 0 3.222-.578 4.383-1.664 1.203-1.074 1.836-2.484 1.836-4.02l-4.786-65.62c0-1.497-.66-2.973-1.804-4.048"/></svg>