<svg xmlns="http://www.w3.org/2000/svg" width="161" height="192" viewBox="0 0 120.75 144"><path fill="currentColor" d="M60.375.305C30.187.305 0 4.078 0 30.492v71.695a26.4 26.4 0 0 0 7.738 18.676 26.4 26.4 0 0 0 18.676 7.739l-11.32 11.32v3.773h16.828l15.094-15.093h28.453l15.094 15.093h15.093v-3.773l-11.32-11.32c14.59 0 26.414-11.825 26.414-26.415V30.493C120.75 4.078 93.73.305 60.375.305zm-33.96 113.203a11.316 11.316 0 0 1-10.458-6.988 11.314 11.314 0 0 1 2.453-12.336 11.314 11.314 0 0 1 12.336-2.454 11.316 11.316 0 0 1 3.672 18.461 11.305 11.305 0 0 1-8.004 3.317zM52.827 60.68H15.094V30.492h37.734zm15.094 0V30.492h37.734V60.68zm26.414 52.828a11.316 11.316 0 0 1-10.457-6.988 11.314 11.314 0 0 1 2.453-12.336 11.314 11.314 0 0 1 12.336-2.454 11.316 11.316 0 0 1 6.988 10.457c0 6.254-5.066 11.32-11.32 11.32zm0 0"/></svg>