<svg xmlns="http://www.w3.org/2000/svg" width="161" height="192" viewBox="0 0 120.75 144"><path fill="currentColor" d="M0 105.96a22.649 22.649 0 0 0 7.547 16.755v13.433a7.552 7.552 0 0 0 7.547 7.547h7.547a7.552 7.552 0 0 0 7.547-7.547v-7.546h60.374v7.546a7.552 7.552 0 0 0 7.547 7.547h7.547a7.552 7.552 0 0 0 7.547-7.547v-13.433a22.649 22.649 0 0 0 7.547-16.754V30.492C120.75 4.078 93.73.305 60.375.305 27.02.305 0 4.078 0 30.492zm26.414 7.548a11.316 11.316 0 0 1-10.457-6.988 11.314 11.314 0 0 1 2.453-12.336 11.314 11.314 0 0 1 12.336-2.454 11.316 11.316 0 0 1 3.672 18.461 11.305 11.305 0 0 1-8.004 3.317zm67.922 0a11.316 11.316 0 0 1-10.457-6.988 11.314 11.314 0 0 1 2.453-12.336 11.314 11.314 0 0 1 12.336-2.454 11.316 11.316 0 0 1 6.988 10.457c0 6.254-5.066 11.32-11.32 11.32zm11.32-45.281H15.094V30.492h90.562zm0 0"/></svg>