<svg xmlns="http://www.w3.org/2000/svg" width="132" height="192" viewBox="0 0 99 144"><path fill="currentColor" fill-rule="evenodd" d="m85.25.5.008.121c2.75-.027 5.37 1.492 6.754 5.645 1.703 5.109.89 12.273-2.5 13.113-3.395.836-6.965.23-8.668-4.883-.313-.93-.54-1.945-.68-2.988L13.75 11.5v19.25h12.3a6.95 6.95 0 0 1 5.524 2.695c.38.301.758.676 1.117 1.11l10.387 12.543c2.922 3.53 3.547 9.683 1.387 13.77L31.219 85.894l25.015 40.02c2.11 3.374 1.434 7.683-1.472 10.167l-.696.488-.675.368c-3.485 1.53-7.664.367-9.856-3.036L14.113 88.203l-.363-.164v43.02c0 3.484-2.523 6.37-5.852 6.867L6.875 138C3.078 138 0 134.918 0 131.059V84.44c0-1.453.438-2.8 1.191-3.918.059-.234.137-.464.25-.691L19.184 44.5H5.594C2.504 44.5 0 42.133 0 39.105V5.895C0 2.915 2.395.5 5.594.5zm-4.637 110c7.594 0 13.75 6.156 13.75 13.75S88.207 138 80.613 138c-7.593 0-13.75-6.156-13.75-13.75s6.157-13.75 13.75-13.75zM55.047 21.273c6.832 0 12.375 5.54 12.375 12.375 0 6.832-5.543 12.375-12.375 12.375-6.836 0-12.375-5.543-12.375-12.375 0-6.836 5.539-12.375 12.375-12.375zm0 0"/></svg>