<svg xmlns="http://www.w3.org/2000/svg" width="192" height="192" viewBox="0 0 144 144"><path fill="currentColor" fill-rule="evenodd" d="M48 117c6.629 0 12 5.371 12 12s-5.371 12-12 12-12-5.371-12-12 5.371-12 12-12zm72 0c6.629 0 12 5.371 12 12s-5.371 12-12 12-12-5.371-12-12 5.371-12 12-12zM43.312 93l-3.156-12h-.05l-13.06-48h.06l-2.77-12H6.102C2.73 21 0 18.219 0 15c0-3.313 2.688-6 6.11-6h29.913c1.692 0 3.579 1.285 4.18 2.781L43.883 21h-.016l4.168 12H144l-12.195 48H60v12h60.055c2.918 0 5.347 2.2 5.847 4.945L126 99c0 3.313-2.594 6-6.113 6H54.19c-3.375 0-7.117-2.543-8.316-5.578L43.34 93zm0 0"/></svg>