<svg xmlns="http://www.w3.org/2000/svg" width="192" height="122" viewBox="0 0 144 91.5"><path fill="currentColor" fill-rule="evenodd" d="M11.406 0c2.79 0 5.051 2.188 5.051 5.012l-.008 50.281h98.899v-.016l-55.72.008V12.313s11.25 1.507 15.184 1.507c19.579 0 36.465 18.938 43.829 29.535l8.863-32.5.027 10.282.012-7.825c0-2.425 1.793-4.449 4.055-4.914l.996-.101c2.785 0 5.047 2.312 5.047 5.015v75.172h-10.098l-.012-16.59H16.45l.008 16.59H6.359V5.012C6.36 2.59 8.152.57 10.414.102zM39.18 13.824c8.367 0 15.148 7.43 15.148 16.594 0 9.16-6.781 16.59-15.148 16.59s-15.149-7.43-15.149-16.59c0-9.164 6.782-16.594 15.149-16.594zm0 0"/></svg>