<svg xmlns="http://www.w3.org/2000/svg" width="192" height="157" viewBox="0 0 144 117.75"><path fill="currentColor" fill-rule="evenodd" d="m92.023 65.496 12.575 10.094.113 9.496h6.504l6.469 6.73.129 6.196 6.582.101 6.046 6.555h.438v6.539H13.129v-6.539h.125l6.695-6.445 6.469-.075-.11-6.468 6.852-6.504 6.313-.137.03-9.75 13.009-9.766v6.614l6.504-.07 6.214 6.449.352 6.414 13.117.09.047-6.485 6.535-6.617 6.215.047zm48.575-45.871 3.261.11-.222 78.046-38.828-38.804-.094-6.352 6.566-6.75 6.406.035.223-6.605 6.281-6.543 6.582-.008.032-3.078zM3.3 19.578l9.793 10.047.035 3.082 6.582.008 6.281 6.543.223 6.605 6.406-.039 6.566 6.75-.093 6.352L.266 97.73.043 19.687zM130.879 6.543v6.539h-.149l-6.304 6.477h-6.54l-.218 6.468-6.34 6.68-6.469-.055v6.606L98.141 45.8h-6.547v6.508l-6.61 6.586h-6.421l-.036 6.539H65.59V58.77h-6.621l-6.48-6.461V45.8l-6.434-.043-6.723-6.5v-6.551h-6.426l-6.636-6.68V19.62s-2.645-.023-3.97-.039c-.359 0-.863-.004-1.34-.012l-1.358-.011-6.32-6.477h-.153V6.543zm0 0"/></svg>