<svg xmlns="http://www.w3.org/2000/svg" width="192" height="192" viewBox="0 0 144 144"><path fill="currentColor" fill-rule="evenodd" d="M104.727 91.676C138.44 91.676 144 62.113 144 62.113V4.031s-10.184 15.551-39.273 15.551c-29.09 0-39.274-15.55-39.274-15.55v35.241h26.184v52.403zm-26.18-35.227v58.078s-5.563 29.567-39.274 29.567C5.56 144.094 0 114.527 0 114.527V56.45S10.184 72 39.273 72c29.09 0 39.274-15.55 39.274-15.55zM26.184 91.637H13.09v13.09h13.094zm39.27 0h-13.09v13.09h13.09zm65.46-52.305v13.094H117.82V39.332zm0 0"/></svg>