<svg xmlns="http://www.w3.org/2000/svg" width="612" height="408"><path fill="currentColor" d="m353 117 4 1 2 9h-2c.228 1.628.483 3.253.75 4.875l.422 2.742c.59 2.524.59 2.524 2.77 3.535L363 139c3.482 4.277 4.505 7.557 5 13 .32 1.67.647 3.337 1 5h-2l1 15 5 1-1 5h-2l1 57 17-1 1-7 3.688-.125 2.074-.07c2.689.234 4.783 1.103 7.238 2.195-.01-.59-.02-1.18-.032-1.788-.041-2.675-.067-5.35-.093-8.024l-.05-2.815-.02-2.705-.032-2.491C402 209 402 209 404 206c1.91-.399 1.91-.399 4.266-.432l2.67-.06 2.884-.02 2.951-.054c3.118-.054 6.236-.088 9.354-.121q3.165-.05 6.332-.104 7.77-.126 15.543-.209c.98 5.687 1.116 11.16 1.063 16.922l-.012 2.85c-.016 3.995-.044 7.99-.072 11.984q-.026 4.395-.041 8.79l-.026 2.679c-.024 6.38.504 12.35 1.088 18.775l1-92c3.411-.682 5.88-1.126 9.224-1.13l2.415-.009 2.564.006 2.662-.003q2.774 0 5.547.006 4.263.005 8.526-.007 2.694 0 5.39.004l2.588-.006c5.969.024 5.969.024 7.084 1.139.379 3.414.427 6.861.555 10.293l.127 3.335c.489 14.311.47 28.627.448 42.945q-.006 6.007.004 12.013.005 4.678 0 9.355 0 2.219.002 4.436.003 3.07-.007 6.14l-.002 3.513c-.107 2.513-.39 4.58-1.127 6.97h2v-59h17v-9h32c.648 8.418 1.15 16.59 1.133 24.996l.003 3.264q0 3.376-.006 6.753c-.005 3.44 0 6.88.007 10.321q0 3.3-.004 6.6l.006 3.096c-.016 4.77-.14 9.281-1.139 13.97h9v-19l-3-1c-1.546-3.092-1.294-5.594-1-9 1.563-2.5 1.563-2.5 4-4 3.563-.063 3.563-.063 7 1 2.558 2.798 3.015 4.278 2.938 8.063C566 254 566 254 563.957 255.605c-2.98 3.647-2.39 7.096-2.207 11.645L562 276l18 1 .5 7.563.158 2.338c.281 4.371.477 8.716.342 13.099-1.718 1.718-3.906 1.123-6.197 1.131l-2.282-.008-2.413.004q-4.054.002-8.11-.007l-5.83.003q-8.052.002-16.104-.007-8.668-.005-17.335-.002-15.03 0-30.062-.008-21.732-.011-43.465-.012-35.255-.004-70.51-.019-34.257-.014-68.514-.02h-2.132l-64.377-.013h-2.006Q175.333 301.026 109 301v-4l7-1h-3a299 299 0 0 1-6-1v-1q-7.12-.435-14.24-.854-2.412-.144-4.826-.292c-8.786-.536-17.504-.975-26.313-.791-3.522-.084-6.333-.84-9.621-2.063v-3c19.592-.75 39.148-1.136 58.756-1.138 4.322-.001 8.644-.014 12.966-.03l2.241-.007 4.521-.016c10.006-.035 20.012-.062 30.018-.06q10.253.004 20.507-.05c3.593-.019 7.186-.028 10.779-.016 3.976.014 7.951-.011 11.927-.04l3.567.031c6.393.009 6.393.009 11.798-3.09L221 280c8.359-5.573 19.494-4.04 29-3l1-10-3.25.5c-3.75.5-3.75.5-7.75.5l3 3H0c1-3 1-3 4.07-4.762q2.022-.975 4.055-1.925 2.198-1.064 4.395-2.133l2.264-1.095a252 252 0 0 0 31.779-18.522C49 241 49 241 51 241v-2h3l1-3c1.682-1.453 3.42-2.84 5.188-4.188 4.343-3.44 7.654-6.756 10.69-11.378L72 219h2l.25-1.563c1.071-3.482 2.885-6.309 4.75-9.437h2l.734-2.488c1.49-4.132 3.427-7.845 5.516-11.7l1.22-2.282a717 717 0 0 1 6.718-12.218c2.893-5.254 5.216-10.714 7.515-16.246 2.092-4.946 3.505-7.336 7.785-10.714 2.343-2.095 3.815-4.725 5.512-7.352 2.125-2.313 2.125-2.313 5-5l2.473-2.313C130.735 131 130.735 131 133 131v-2c4.593-2.644 8.818-2.528 14-2 2.012.607 3.867 1.372 5.793 2.21 3.679 1.316 7.512 1.679 11.375 2.165 4.42.976 7.138 2.913 10.27 6.125 2.713 2.648 5.166 3.873 8.562 5.5 4.036 2.855 6.884 6.183 10 10l2.438 2.375C204 164.146 204 164.146 204 168l1.676.246c5.177 1.68 9.251 6.262 13.324 9.754l2.719 2.305c4.659 4.025 4.659 4.025 6.281 5.695v2l1.688.188c3.265 1.147 4.877 3.353 7.312 5.812 9.23 8.273 18.892 14.578 30 20l2.156 1.164c5.175 2.792 10.697 4.725 16.21 6.731 5.387 1.964 5.387 1.964 7.806 3.347 2.702 1.12 4.073.706 6.828-.242 1.544-1.1 3.088-2.203 4.604-3.341 7.024-5.022 7.024-5.022 11.446-4.345 4.384 1.543 8.265 3.94 12.132 6.488 2.542 1.675 5.183 3.172 7.818 4.698q2.005 1.245 4 2.5l-.199-1.635c-1.109-10.401-1.152-20.854-1.363-31.303l-.131-5.962q-.12-5.437-.231-10.873l-.045-2.188A405 405 0 0 1 338 173l1.953-.555c2.421-1.353 2.421-1.353 2.656-4.703l.141-3.867.172-3.883L343 157h-2v-4h2l-.61-1.715c-.492-2.884.132-4.217 1.36-6.847.345-.765.69-1.53 1.047-2.317C346 140 347.12 138.548 349 137h2l2-10h-2c-1.392-4.176.177-6.135 2-10m0 44v10h3l1-11c-2.075-.15-2.075-.15-4 1m1 24c-2.43 3.644-2.083 4.93-1.625 9.188l.336 3.292L353 200l5-1c.081-1.77.14-3.541.188-5.313l.105-2.988c-.057-2.732-.057-2.732-1.742-4.554-1.364-1.244-1.364-1.244-2.551-1.145m105 5v4h3v-4zm9 0 1 3h2v-3zm10 0 2 2v-2zm-19 11v4h3v-4zm9 0v4h2v-4zm9 0 1 4h2v-4zm10 0v2l2-1zm-28 11 1 4h2v-4zm9 0v4l3-1v-3zm10 0v4h2v-4zm-66 8v7h6v-5h-2v-2zm14 0v7h5l-1-7zm14 0c-2.287 1.839-2.287 1.839-2.125 4.625L438 227h3v-7zm93 0-1 3h7v-3zm-74 4v3h3v-3zm9 0v3h3v-3zm11 0-1 2h2zm29 6v4q2.688.039 5.375.063l3.023.035c2.586.082 2.586.082 4.602-1.098v-3zm-264 3c-1.027 1.67-2.049 3.347-2.93 5.098-1.541 2.74-3.58 4.922-5.703 7.226-3.673 4.502-3.73 8.038-3.367 13.676l2 2 .184-2.047.254-2.703c.08-.882.162-1.763.246-2.672A44 44 0 0 1 236 247h2l2-3 3-1 .875-3.375C245 236 245 236 247.125 234.062c4.736-1.75 8.898-1.578 13.75-.312 2.467 1.451 3.152 2.596 4.125 5.25.406-3.813.406-3.813-1.25-5.625-6.127-4.814-13.376-4.865-19.75-.375m288-2v3h6l1-3zm-73 4v4h3v-4zm9 0v3h2v-3zm11 0 1 3Zm-67 2v4h6v-4zm14 0v6h4l1-6zm12 0v5l2 1-1-6zm-173 2c.196 2.401.196 2.401 1 5q1.977 1.53 4 3c2.215 3.987 2.474 7.493 2 12-1.87 3.813-3.071 5.565-6.938 7.375-2.801.572-5.215.792-8.062.625v9c3.335.834 5.624 1.118 8.984 1.098l2.832-.01 2.934-.026 2.98-.013q3.636-.018 7.27-.049v-2l2-1v-7h-1v5l-2-1c-2.713-.232-5.408-.42-8.125-.563l-2.285-.13A1637 1637 0 0 0 265 270l2.887-1.871c3.904-2.67 5.627-4.671 7.113-9.129.14-3.843.179-7.317-1-11h-2l-.875-1.813c-1.172-2.38-1.172-2.38-3.125-5.187h-2zm243 3v3h13v-3zm24 0 1 3h5l1-3zm-162 5v29c2.296-1.848 2.296-1.848 2.135-4.706l-.158-3.396-.157-3.671-.195-3.852-.172-3.875q-.213-4.75-.453-9.5zm2 1 1 2Zm0 3 1 4Zm17 6c-.538 2.847-.293 5.072 0 8h3v-8l3.875-.188 2.18-.105L400 257c2.29 3.435 2.178 4.985 2 9h2c.949-4.665.949-4.665.375-9.313-1.857-2.279-3.58-2.869-6.375-3.687-4.202 0-5.882 1.229-9 4m142-2v2h7l1-4c-3.716-.2-4.772-.152-8 2m-23-1v3h13v-3zm-81 1v5h4v-5zm11 0v5h2v-5zm-204 6 2 5 3-1-1-2h-2v-2zm63 0c-2.351 3.527-2.214 5.029-2.125 9.188l.055 3.292.07 2.52h8c.081-1.937.14-3.875.188-5.813l.105-3.269c-.05-2.9-.05-2.9-1.617-4.805-1.757-1.39-1.757-1.39-4.676-1.113m14 2c-.365 3.126-.365 3.126-.188 6.625l.083 3.602L311 276h9c.081-1.937.14-3.875.188-5.813l.105-3.269c-.05-2.9-.05-2.9-1.617-4.805-3.188-2.118-4.643-1.135-7.676.887m18.324-.887c-1.906 2.717-1.617 4.798-1.512 8.075l.083 3.292L328 276h9c.08-2.124.14-4.25.188-6.375l.105-3.586L337 263c-3.76-2.513-3.76-2.513-7.676-.887M396 269v13h162v-3H398l1-2c.069-1.373.085-2.75.063-4.125L399 269zm54 1-2 2v3h3v-5z"/><path fill="currentColor" d="M516 206h32c.648 8.418 1.15 16.59 1.133 24.996l.003 3.264q0 3.377-.006 6.753-.005 5.16.007 10.321 0 3.3-.004 6.6l.006 3.096c-.016 4.77-.14 9.281-1.139 13.97h9v-8h1v9l-5 1 4 2h-63l4-3-2-1 1-3v2h2v-59h17zm17 14-1 3h7v-3zm-25 10v4q2.688.039 5.375.063l3.023.035c2.586.082 2.586.082 4.602-1.098v-3zm24 1v3h6l1-3zm-24 11v3h13v-3zm24 0 1 3h5l1-3zm-1 13v2h7l1-4c-3.716-.2-4.772-.152-8 2m-23-1v3h13v-3z"/><path fill="currentColor" d="M123 286c-1.877 5.07-3.649 6.794-8.438 9.25-2.934.859-4.654.581-7.562-.25v-1q-7.12-.435-14.24-.854-2.412-.144-4.826-.292c-8.786-.536-17.504-.975-26.313-.791-3.522-.084-6.333-.84-9.621-2.063v-3c23.673-.983 47.31-1.118 71-1"/><path fill="currentColor" d="M560.563 241.938C564 243 564 243 566 245.188c1.237 3.48 1.142 5.31 0 8.812-2.063 1.875-2.063 1.875-4 3v-2l-3 2c-.736 3.568-.736 3.568-1 7h-1v-8l-3-1c-1.546-3.092-1.294-5.594-1-9 2.254-3.606 3.287-3.987 7.563-4.063Z"/><path fill="currentColor" d="M400 256c1.875 1.688 1.875 1.688 3 4 .125 2.625.125 2.625 0 5l1 2-4 1v10l-2 1 1-10h-3l-1 3-1-6-2 2c-1.092-3.276-1.286-5.568-1-9 2.202-3.67 4.99-3.585 9-3"/><path fill="currentColor" d="m353 117 4 1 2 9h-2c.228 1.628.483 3.253.75 4.875l.422 2.742c.595 2.537.595 2.537 2.844 3.578L363 139l1 2-4 1c-2.011-2.56-3.628-5.046-5-8l-4 2 2-9h-2c-1.392-4.176.177-6.135 2-10"/><path fill="currentColor" d="M560 255h2c.058 3.083.094 6.166.125 9.25.017.873.034 1.745.05 2.645l.02 2.558.032 2.349c-.254 2.457-1.003 4.071-2.227 6.198h-7l-1-2h6l-.254-2.379c-1.073-11.071-1.073-11.071.254-16.621z"/><path fill="currentColor" d="M366 146c2.12 3.534 2.532 6.944 3 11h-2v12h-1v-11l-4-1c-1-1-1-1-1.063-4.563L361 149h5z"/><path fill="currentColor" d="M446 217h2v15l-3-2h-3c-1-1-1-1-1.098-3.066l.036-2.496.027-2.504L441 220l2 2 1.375-2.5z"/><path fill="currentColor" d="M52 287h20l-1 3h-9v2l-9-1z"/><path fill="currentColor" d="m545 270 3 1v4l2 2c-1 1-1 1-3.813 1.188-3.104-.183-4.522-.76-7.187-2.188l-2 1 2-4h5z"/><path fill="currentColor" d="m500 229 1.75 1c2.449 1.27 2.449 1.27 6.25 1l-4 7h-4c-1.125-5.625-1.125-5.625 0-9"/><path fill="currentColor" d="M272 252h1c.455 5.693-.318 8.602-4 13-2.25 1.375-2.25 1.375-4 2 .607-4.128 2.038-7.332 4-11l1 2h2z"/><path fill="currentColor" d="M109 297h9l2 4h-11z"/><path fill="currentColor" d="M557 267h1v9l-5 1 4 2h-15v-1l7-1-2-2h10z"/><path fill="currentColor" d="M258 232c2 1.5 2 1.5 3 3l-2 2-2-2c-3.1.322-3.1.322-6 1v-2l-2.375 1.563L246 237l-2-1c4.863-3.89 7.763-4.716 14-4"/><path fill="currentColor" d="M54 241v3l-9 3-2-2c3.797-2.826 6.186-4.566 11-4"/><path fill="currentColor" d="M252 267c2.063.438 2.063.438 4 1l1 7-6-2a100 100 0 0 1 0-5z"/><path fill="currentColor" d="m354 133 4 3-3 1 1 4-6-1 2-5h2z"/><path fill="currentColor" d="M535 275c3.767 0 4.912.235 8 2l-1 2h-10z"/><path d="M372 242c2.508 3.762 1.843 4.703 1 9-.037 2-.048 4 0 6l-2 1a434 434 0 0 1-.625-5.75l-.352-3.234c-.023-3.054.363-4.478 1.977-7.016"/><path fill="currentColor" d="m3 267 2 1-1 1h9l1 2H0l1-3z"/><path fill="currentColor" d="m353 117 4 1 2 9h-2l-2-7-2 2z"/><path fill="currentColor" d="M533 245h5l-3 3-3-1zm-1 3 2 3-2 1-2-2z"/><path fill="currentColor" d="m371 235 1 2h2v8l-3-2c-.408-2.712-.133-5.244 0-8"/><path fill="currentColor" d="M546 207h2l1 8-4-2z"/><path fill="currentColor" d="M373 257c.93 2.606 1.15 3.642.063 6.25L372 265h-1v-7z"/><path fill="currentColor" d="m505 230 3 1-4 7-3-2h2z"/><path fill="currentColor" d="M194 154c2.526 2.363 3.888 3.665 5 7-2.867-.573-3.861-.861-6-3 .375-2.125.375-2.125 1-4"/><path fill="currentColor" d="m323 222 7 3-3 1-1 2c-3-3.75-3-3.75-3-6"/><path fill="currentColor" d="M121 140c0 3 0 3-2.5 5.688L116 148l-2-1c4.75-5.875 4.75-5.875 7-7"/><path fill="currentColor" d="m542 280 3 1Z"/><path d="m537 280 2 1Z"/><path fill="currentColor" d="m515 280 2 1Z"/><path d="m512 280 2 1Zm-4 0 2 1Zm-18 0 2 1Zm-254-8 2 1Z"/></svg>
