<svg xmlns="http://www.w3.org/2000/svg" width="582" height="185" fill="none" viewBox="0 0 582 185"><path fill="#000" d="m353 0 4 1 2 9h-2c.228 1.628.483 3.253.75 4.875l.422 2.742c.59 2.524.59 2.524 2.77 3.535L363 22c3.482 4.277 4.505 7.557 5 13 .32 1.67.647 3.337 1 5h-2l1 15 5 1-1 5h-2l1 57 17-1 1-7 3.688-.125 2.074-.07c2.689.234 4.783 1.103 7.238 2.195-.01-.59-.02-1.18-.032-1.788-.041-2.675-.067-5.35-.093-8.024l-.05-2.815-.02-2.705-.032-2.491C402 92 402 92 404 89c1.91-.399 1.91-.399 4.266-.432l2.67-.06 2.884-.02 2.951-.054c3.118-.054 6.236-.088 9.354-.121q3.165-.05 6.332-.104 7.77-.126 15.543-.209c.98 5.687 1.116 11.16 1.063 16.922l-.012 2.85c-.016 3.995-.044 7.99-.072 11.984q-.026 4.395-.041 8.79l-.026 2.679c-.024 6.38.504 12.35 1.088 18.775l1-92c3.411-.682 5.88-1.126 9.224-1.13l2.415-.009 2.564.006 2.662-.003q2.773 0 5.547.006 4.263.005 8.526-.007 2.694 0 5.39.004l2.588-.006c5.969.024 5.969.024 7.084 1.139.379 3.414.427 6.861.555 10.293l.127 3.335c.489 14.311.47 28.627.448 42.945q-.006 6.007.004 12.013.005 4.678 0 9.355l.002 4.436q.003 3.07-.007 6.14l-.002 3.513c-.107 2.513-.39 4.58-1.127 6.97h2V98h17v-9h32c.648 8.418 1.15 16.59 1.133 24.996l.003 3.264q0 3.377-.006 6.753c-.005 3.44 0 6.88.007 10.321q0 3.3-.004 6.6l.006 3.096c-.016 4.77-.14 9.281-1.139 13.97h9v-19l-3-1c-1.546-3.092-1.294-5.594-1-9 1.563-2.5 1.563-2.5 4-4 3.563-.063 3.563-.063 7 1 2.558 2.798 3.015 4.278 2.938 8.063C566 137 566 137 563.957 138.605c-2.98 3.647-2.39 7.096-2.207 11.645L562 159l18 1 .5 7.563.158 2.338c.281 4.371.477 8.716.342 13.099-1.718 1.718-3.906 1.123-6.197 1.131l-2.282-.008-2.413.004q-4.054.002-8.11-.007l-5.83.003q-8.052.002-16.104-.007-8.668-.005-17.335-.002-15.03 0-30.062-.008-21.732-.01-43.465-.012-35.255-.004-70.51-.019-34.257-.014-68.514-.02h-2.132l-64.377-.013h-2.006Q175.333 184.025 109 184v-4l7-1h-3a298 298 0 0 1-6-1v-1q-7.12-.435-14.24-.854-2.412-.144-4.826-.292c-8.786-.536-17.504-.975-26.313-.791-3.522-.084-6.333-.84-9.621-2.063v-3c19.592-.75 39.148-1.136 58.756-1.138 4.322-.001 8.644-.014 12.966-.03l2.241-.007 4.521-.016c10.006-.035 20.012-.062 30.018-.06q10.253.004 20.507-.05c3.593-.019 7.186-.028 10.779-.016 3.976.014 7.951-.011 11.927-.04l3.567.031c6.393.009 6.393.009 11.798-3.09L221 163c8.359-5.573 19.494-4.04 29-3l1-10-3.25.5c-3.75.5-3.75.5-7.75.5l3 3H0c1-3 1-3 4.07-4.762q2.022-.975 4.055-1.925 2.198-1.063 4.395-2.133l2.264-1.095a252 252 0 0 0 31.779-18.522C49 124 49 124 51 124v-2h3l1-3c1.682-1.453 3.42-2.84 5.188-4.188 4.343-3.44 7.654-6.756 10.69-11.378L72 102h2l.25-1.563C75.321 96.955 77.135 94.128 79 91h2l.734-2.488c1.49-4.132 3.427-7.845 5.516-11.7l1.22-2.282q3.3-6.141 6.718-12.218c2.893-5.254 5.216-10.714 7.515-16.246 2.092-4.946 3.505-7.336 7.785-10.714 2.343-2.095 3.815-4.725 5.512-7.352 2.125-2.313 2.125-2.313 5-5l2.473-2.313C130.735 14 130.735 14 133 14v-2c4.593-2.644 8.818-2.528 14-2 2.012.607 3.867 1.372 5.793 2.21 3.679 1.316 7.512 1.679 11.375 2.165 4.42.976 7.138 2.913 10.27 6.125 2.713 2.648 5.166 3.873 8.562 5.5 4.036 2.855 6.884 6.183 10 10l2.438 2.375C204 47.146 204 47.146 204 51l1.676.246c5.177 1.68 9.251 6.262 13.324 9.754l2.719 2.305C226.378 67.33 226.378 67.33 228 69v2l1.688.188c3.265 1.147 4.877 3.353 7.312 5.812 9.23 8.273 18.892 14.578 30 20l2.156 1.164c5.175 2.792 10.697 4.725 16.21 6.731 5.387 1.964 5.387 1.964 7.806 3.347 2.702 1.12 4.073.706 6.828-.242 1.544-1.1 3.088-2.203 4.604-3.341 7.024-5.022 7.024-5.022 11.446-4.345 4.384 1.543 8.265 3.94 12.132 6.488 2.542 1.675 5.183 3.172 7.818 4.698q2.005 1.245 4 2.5l-.199-1.635c-1.109-10.401-1.152-20.854-1.363-31.303l-.131-5.962q-.12-5.437-.231-10.873l-.045-2.188A405 405 0 0 1 338 56l1.953-.555c2.421-1.353 2.421-1.353 2.656-4.703l.141-3.867.172-3.883L343 40h-2v-4h2l-.61-1.715c-.492-2.884.132-4.217 1.36-6.847.345-.765.69-1.53 1.047-2.317C346 23 347.12 21.548 349 20h2l2-10h-2c-1.392-4.176.177-6.135 2-10m0 44v10h3l1-11c-2.075-.15-2.075-.15-4 1m1 24c-2.43 3.644-2.083 4.93-1.625 9.188l.336 3.292L353 83l5-1c.081-1.77.14-3.541.188-5.313l.105-2.988c-.057-2.732-.057-2.732-1.742-4.554-1.364-1.244-1.364-1.244-2.551-1.145m105 5v4h3v-4zm9 0 1 3h2v-3zm10 0 2 2v-2zm-19 11v4h3v-4zm9 0v4h2v-4zm9 0 1 4h2v-4zm10 0v2l2-1zm-28 11 1 4h2v-4zm9 0v4l3-1v-3zm10 0v4h2v-4zm-66 8v7h6v-5h-2v-2zm14 0v7h5l-1-7zm14 0c-2.287 1.839-2.287 1.839-2.125 4.625L438 110h3v-7zm93 0-1 3h7v-3zm-74 4v3h3v-3zm9 0v3h3v-3zm11 0-1 2h2zm29 6v4q2.688.039 5.375.063l3.023.035c2.586.082 2.586.082 4.602-1.098v-3zm-264 3c-1.027 1.67-2.049 3.347-2.93 5.098-1.541 2.74-3.58 4.922-5.703 7.226-3.673 4.502-3.73 8.038-3.367 13.676l2 2 .184-2.047.254-2.703c.08-.882.162-1.763.246-2.672A44 44 0 0 1 236 130h2l2-3 3-1 .875-3.375C245 119 245 119 247.125 117.062c4.736-1.75 8.898-1.578 13.75-.312 2.467 1.451 3.152 2.596 4.125 5.25.406-3.813.406-3.813-1.25-5.625-6.127-4.814-13.376-4.865-19.75-.375m288-2v3h6l1-3zm-73 4v4h3v-4zm9 0v3h2v-3zm-56 2v4h6v-4zm14 0v6h4l1-6zm12 0v5l2 1-1-6zm-173 2c.196 2.401.196 2.401 1 5a165 165 0 0 0 4 3c2.215 3.987 2.474 7.493 2 12-1.87 3.813-3.071 5.565-6.938 7.375-2.801.572-5.215.792-8.062.625v9c3.335.834 5.624 1.118 8.984 1.098l2.832-.01 2.934-.026 2.98-.013q3.636-.018 7.27-.049v-2l2-1v-7h-1v5l-2-1c-2.713-.232-5.408-.42-8.125-.563l-2.285-.13q-2.794-.159-5.59-.307l2.887-1.871c3.904-2.67 5.627-4.671 7.113-9.129.14-3.843.179-7.317-1-11h-2l-.875-1.813c-1.172-2.38-1.172-2.38-3.125-5.187h-2zm243 3v3h13v-3zm24 0 1 3h5l1-3zm-162 5v29c2.296-1.848 2.296-1.848 2.135-4.706l-.158-3.396-.157-3.671-.195-3.852-.172-3.875q-.213-4.75-.453-9.5zm19 10c-.538 2.847-.293 5.072 0 8h3v-8l3.875-.188 2.18-.105L400 140c2.29 3.435 2.178 4.985 2 9h2c.949-4.665.949-4.665.375-9.313-1.857-2.279-3.58-2.869-6.375-3.687-4.202 0-5.882 1.229-9 4m142-2v2h7l1-4c-3.716-.2-4.772-.152-8 2m-23-1v3h13v-3zm-81 1v5h4v-5zm11 0v5h2v-5zm-204 6 2 5 3-1-1-2h-2v-2zm63 0c-2.351 3.527-2.214 5.029-2.125 9.188l.055 3.292.07 2.52h8c.081-1.937.14-3.875.188-5.813l.105-3.269c-.05-2.9-.05-2.9-1.617-4.805-1.757-1.39-1.757-1.39-4.676-1.113m14 2c-.365 3.126-.365 3.126-.188 6.625l.083 3.602L311 159h9c.081-1.937.14-3.875.188-5.813l.105-3.269c-.05-2.9-.05-2.9-1.617-4.805-3.188-2.118-4.643-1.135-7.676.887m18.324-.887c-1.906 2.717-1.617 4.798-1.512 8.075l.083 3.292L328 159h9c.08-2.124.14-4.25.188-6.375l.105-3.586L337 146c-3.76-2.513-3.76-2.513-7.676-.887M396 152v13h162v-3H398l1-2c.069-1.373.085-2.75.063-4.125L399 152zm54 1-2 2v3h3v-5z"/></svg>
