<svg xmlns="http://www.w3.org/2000/svg" width="24" height="24" viewBox="0 0 24 24" fill="none">
  <path fill="#1961AC" d="m6.558 7.289 7.765 4.483 4.634-2.673a1.039 1.039 0 0 0 0-1.8L6.557.139A1.037 1.037 0 0 0 5 1.039V8.19a1.038 1.038 0 0 1 1.557-.9l.001-.001Zm12.399 7.156-4.634-2.67-7.766 4.48a1.038 1.038 0 0 1-1.557-.9v7.152a1.04 1.04 0 0 0 1.557.9l12.4-7.16a1.038 1.038 0 0 0 0-1.8v-.002Z"/>
  <path fill="#004899" d="m6.558 16.255 7.765-4.483-7.766-4.483a1.036 1.036 0 0 0-1.557.9v7.167a1.038 1.038 0 0 0 1.557.9l.001-.001Z"/>
</svg>
