<svg xmlns="http://www.w3.org/2000/svg" width="312" height="342" fill="none"><g filter="url(#a)"><path fill="#EA4335" d="M274 138c0 65.17-76.385 147.447-118 147.447-41.615 0-118-82.277-118-147.447S90.83 20 156 20s118 52.83 118 118Z"/><path stroke="#fff" stroke-opacity=".25" stroke-width="6" d="M156 23c63.513 0 115 51.487 115 115 0 31.564-18.593 67.753-42.685 96.225-12.002 14.185-25.25 26.307-37.993 34.857-12.822 8.604-24.797 13.365-34.322 13.365-9.525 0-21.5-4.761-34.322-13.365-12.743-8.55-25.99-20.672-37.993-34.857C59.593 205.753 41 169.564 41 138 41 74.487 92.487 23 156 23Z"/></g><rect width="136" height="136" x="88" y="70" fill="#A3342B" rx="68"/><defs><filter id="a" width="312" height="341.447" x="0" y="0" color-interpolation-filters="sRGB" filterUnits="userSpaceOnUse"><feFlood flood-opacity="0" result="BackgroundImageFix"/><feColorMatrix in="SourceAlpha" result="hardAlpha" values="0 0 0 0 0 0 0 0 0 0 0 0 0 0 0 0 0 0 127 0"/><feOffset dy="2"/><feGaussianBlur stdDeviation="1.25"/><feColorMatrix values="0 0 0 0 0.122709 0 0 0 0 0.138823 0 0 0 0 0.283843 0 0 0 0.02 0"/><feBlend in2="BackgroundImageFix" result="effect1_dropShadow_2_573"/><feColorMatrix in="SourceAlpha" result="hardAlpha" values="0 0 0 0 0 0 0 0 0 0 0 0 0 0 0 0 0 0 127 0"/><feOffset dy="7"/><feGaussianBlur stdDeviation="4.25"/><feColorMatrix values="0 0 0 0 0.122709 0 0 0 0 0.138823 0 0 0 0 0.283843 0 0 0 0.04 0"/><feBlend in2="effect1_dropShadow_2_573" result="effect2_dropShadow_2_573"/><feColorMatrix in="SourceAlpha" result="hardAlpha" values="0 0 0 0 0 0 0 0 0 0 0 0 0 0 0 0 0 0 127 0"/><feOffset dy="18"/><feGaussianBlur stdDeviation="19"/><feColorMatrix values="0 0 0 0 0.122709 0 0 0 0 0.138823 0 0 0 0 0.283843 0 0 0 0.07 0"/><feBlend in2="effect2_dropShadow_2_573" result="effect3_dropShadow_2_573"/><feBlend in="SourceGraphic" in2="effect3_dropShadow_2_573" result="shape"/></filter></defs></svg>