<svg xmlns="http://www.w3.org/2000/svg" width="349" height="397" fill="none"><g filter="url(#a)"><path fill="#fff" d="M71.889 60.131c56.447-56.532 147.966-56.532 204.413 0 56.447 56.533 56.447 148.19 0 204.722l-81.781 81.904c-11.28 11.298-29.57 11.298-40.851 0l-81.781-81.904c-56.447-56.532-56.447-148.189 0-204.722Z"/></g><rect width="239.939" height="239.939" x="54.126" y="42.304" fill="#B56AFF" rx="119.631"/><path fill="#fff" fill-rule="evenodd" d="M123.87 133.547c0-3.454 12.969-27.175 46.417-12.191 8.852-.99 28.87-4.17 36.057 7.176-18.558 3.196-15.865 5.015-15.865 5.015s14.129 6.516 26.441 54.838c5.473 5.505 10.036 10.428 5.634 17.942-3.728-5.118-6.897-8.469-6.897-8.469l-6.771 19.343s-6.175-4.013-2.542-28.816c-6.263-9.56-28.1-30.82-39.517-36.022 0 6.736-.967 11.222 8.522 23.695-5.062 3.641-24.458-10.85-22.512-28.56-8.944-3.61-28.967-10.497-28.967-13.951Z" clip-rule="evenodd"/><defs><filter id="a" width="348.191" height="396.606" x="0" y="0" color-interpolation-filters="sRGB" filterUnits="userSpaceOnUse"><feFlood flood-opacity="0" result="BackgroundImageFix"/><feColorMatrix in="SourceAlpha" result="hardAlpha" values="0 0 0 0 0 0 0 0 0 0 0 0 0 0 0 0 0 0 127 0"/><feOffset dy="5.911"/><feGaussianBlur stdDeviation="8.866"/><feColorMatrix values="0 0 0 0 0 0 0 0 0 0 0 0 0 0 0 0 0 0 0.3 0"/><feBlend in2="BackgroundImageFix" result="effect1_dropShadow_12_230"/><feColorMatrix in="SourceAlpha" result="hardAlpha" values="0 0 0 0 0 0 0 0 0 0 0 0 0 0 0 0 0 0 127 0"/><feOffset dy="11.821"/><feGaussianBlur stdDeviation="14.777"/><feColorMatrix values="0 0 0 0 0.196078 0 0 0 0 0.196078 0 0 0 0 0.364706 0 0 0 0.25 0"/><feBlend in2="effect1_dropShadow_12_230" result="effect2_dropShadow_12_230"/><feColorMatrix in="SourceAlpha" result="hardAlpha" values="0 0 0 0 0 0 0 0 0 0 0 0 0 0 0 0 0 0 127 0"/><feOffset/><feGaussianBlur stdDeviation="5.911"/><feComposite in2="hardAlpha" operator="out"/><feColorMatrix values="0 0 0 0 0 0 0 0 0 0 0 0 0 0 0 0 0 0 0.1 0"/><feBlend in2="effect2_dropShadow_12_230" result="effect3_dropShadow_12_230"/><feBlend in="SourceGraphic" in2="effect3_dropShadow_12_230" result="shape"/></filter></defs></svg>