<svg xmlns="http://www.w3.org/2000/svg" width="349" height="397" fill="none"><g filter="url(#a)"><path fill="#fff" d="M71.889 60.131c56.447-56.532 147.966-56.532 204.413 0 56.447 56.533 56.447 148.19 0 204.722l-81.781 81.904c-11.28 11.298-29.57 11.298-40.851 0l-81.781-81.904c-56.447-56.532-56.447-148.189 0-204.722Z"/></g><rect width="239.939" height="239.939" x="54.126" y="42.304" fill="#697AD4" rx="119.631"/><path fill="#fff" fill-rule="evenodd" d="M184.052 117.469v14.937h-12.447v74.671h-12.447v-74.671h-12.443v-14.937h37.337Zm-45.125 0 12.794 89.608h-12.397l-2.826-20.474h-11.819l-2.906 20.474h-12.396l14.245-89.608h15.305Zm64.608 0s9.287 54.613 10.387 64.718c.934-9.962 10.139-64.718 10.139-64.718h14.751v89.608h-9.958l-.011-59.717-.107.958c-1.518 11.583-9.836 58.759-9.836 58.759h-8.638s-9.725-47.046-11.165-58.748l-.119-.984c-.088.359-.593 4.667.007 59.732h-9.954v-89.608h14.504Zm-72.493 16.492h-.313c-.678 5.983-1.654 15.284-2.332 20.474l-2.444 18.606h9.375l-2.155-18.739c-.685-5.457-1.555-14.357-2.131-20.341Z" clip-rule="evenodd"/><defs><filter id="a" width="348.191" height="396.606" x="0" y="0" color-interpolation-filters="sRGB" filterUnits="userSpaceOnUse"><feFlood flood-opacity="0" result="BackgroundImageFix"/><feColorMatrix in="SourceAlpha" result="hardAlpha" values="0 0 0 0 0 0 0 0 0 0 0 0 0 0 0 0 0 0 127 0"/><feOffset dy="5.911"/><feGaussianBlur stdDeviation="8.866"/><feColorMatrix values="0 0 0 0 0 0 0 0 0 0 0 0 0 0 0 0 0 0 0.3 0"/><feBlend in2="BackgroundImageFix" result="effect1_dropShadow_12_189"/><feColorMatrix in="SourceAlpha" result="hardAlpha" values="0 0 0 0 0 0 0 0 0 0 0 0 0 0 0 0 0 0 127 0"/><feOffset dy="11.821"/><feGaussianBlur stdDeviation="14.777"/><feColorMatrix values="0 0 0 0 0.196078 0 0 0 0 0.196078 0 0 0 0 0.364706 0 0 0 0.25 0"/><feBlend in2="effect1_dropShadow_12_189" result="effect2_dropShadow_12_189"/><feColorMatrix in="SourceAlpha" result="hardAlpha" values="0 0 0 0 0 0 0 0 0 0 0 0 0 0 0 0 0 0 127 0"/><feOffset/><feGaussianBlur stdDeviation="5.911"/><feComposite in2="hardAlpha" operator="out"/><feColorMatrix values="0 0 0 0 0 0 0 0 0 0 0 0 0 0 0 0 0 0 0.1 0"/><feBlend in2="effect2_dropShadow_12_189" result="effect3_dropShadow_12_189"/><feBlend in="SourceGraphic" in2="effect3_dropShadow_12_189" result="shape"/></filter></defs></svg>