<svg xmlns="http://www.w3.org/2000/svg" width="349" height="397" fill="none"><g filter="url(#a)"><path fill="#fff" d="M71.889 60.131c56.447-56.532 147.966-56.532 204.413 0 56.447 56.533 56.447 148.19 0 204.722l-81.781 81.904c-11.28 11.298-29.57 11.298-40.851 0l-81.781-81.904c-56.447-56.532-56.447-148.189 0-204.722Z"/></g><rect width="239.939" height="239.939" x="54.126" y="42.304" fill="#697AD4" rx="119.631"/><path fill="#fff" fill-rule="evenodd" d="M235.369 119.852v84.842H112.821v-84.842h122.548Zm-51.766 32.995c-2.004 0-3.741.468-5.22 1.399-1.479.935-2.708 2.251-3.693 3.948-.983 1.696-1.723 3.716-2.214 6.062-.492 2.337-.739 4.902-.739 7.684 0 2.788.238 5.346.715 7.691.474 2.34 1.205 4.354 2.188 6.031.984 1.679 2.216 2.992 3.689 3.924 1.479.932 3.22 1.399 5.224 1.399 1.996 0 3.739-.468 5.216-1.4 1.476-.932 2.708-2.244 3.693-3.924.986-1.676 1.71-3.69 2.188-6.03.478-2.345.715-4.903.715-7.691 0-2.782-.237-5.347-.715-7.685-.478-2.345-1.202-4.365-2.188-6.062-.985-1.696-2.217-3.012-3.693-3.947-1.477-.932-3.202-1.399-5.166-1.399Zm28.279 0c-2.001 0-3.736.468-5.216 1.399-1.479.935-2.708 2.251-3.693 3.948-.983 1.696-1.724 3.716-2.215 6.062-.495 2.337-.738 4.902-.738 7.684 0 2.788.237 5.346.714 7.691.475 2.34 1.206 4.354 2.185 6.031.988 1.679 2.22 2.992 3.693 3.924 1.479.932 3.22 1.399 5.224 1.399 1.996 0 3.74-.468 5.216-1.4 1.476-.932 2.708-2.244 3.693-3.924.982-1.676 1.71-3.69 2.188-6.03.474-2.345.714-4.903.714-7.691 0-2.782-.24-5.347-.714-7.685-.478-2.345-1.206-4.365-2.188-6.062-.985-1.696-2.217-3.012-3.693-3.947-1.476-.932-3.203-1.399-5.17-1.399Zm-44.857 0h-4.711c-1.53 1.63-4.616 3.089-6.261 4.378a68.648 68.648 0 0 1-5.524 3.871l3.536 4.712c1.086-.745.705-1.156 1.352-1.583.645-.424 1.257-.821 1.831-1.192.377-.274.765-.555 1.175-.845.405-.287 1.125-.721 1.533-1.092v24.774l-7.107.053-.102 4.632h18.991l-.05-4.685h-4.663v-33.023Zm16.528 5.5c1.556 0 2.804 1.119 3.739 3.36.932 2.241 1.403 5.651 1.403 10.233-.049 4.551-.511 7.944-1.426 10.185-.921 2.24-2.14 3.36-3.666 3.36-1.6 0-2.859-1.12-3.794-3.36-.932-2.241-1.399-5.634-1.399-10.185 0-4.583.467-7.992 1.399-10.233.935-2.241 2.18-3.36 3.744-3.36Zm28.283 0c1.556 0 2.804 1.119 3.74 3.36.932 2.241 1.402 5.651 1.402 10.233-.053 4.551-.51 7.944-1.426 10.185-.922 2.24-2.144 3.36-3.67 3.36-1.596 0-2.859-1.12-3.79-3.36-.935-2.241-1.4-5.634-1.4-10.185 0-4.583.465-7.992 1.4-10.233.932-2.241 2.18-3.36 3.744-3.36Zm-75.447-29.067c-7.812 0-14.141 6.329-14.141 14.14 0 7.807 6.329 14.139 14.141 14.139 7.807 0 14.139-6.332 14.139-14.14 0-7.81-6.332-14.139-14.14-14.139h.001Z" clip-rule="evenodd"/><defs><filter id="a" width="348.191" height="396.606" x="0" y="0" color-interpolation-filters="sRGB" filterUnits="userSpaceOnUse"><feFlood flood-opacity="0" result="BackgroundImageFix"/><feColorMatrix in="SourceAlpha" result="hardAlpha" values="0 0 0 0 0 0 0 0 0 0 0 0 0 0 0 0 0 0 127 0"/><feOffset dy="5.911"/><feGaussianBlur stdDeviation="8.866"/><feColorMatrix values="0 0 0 0 0 0 0 0 0 0 0 0 0 0 0 0 0 0 0.3 0"/><feBlend in2="BackgroundImageFix" result="effect1_dropShadow_12_195"/><feColorMatrix in="SourceAlpha" result="hardAlpha" values="0 0 0 0 0 0 0 0 0 0 0 0 0 0 0 0 0 0 127 0"/><feOffset dy="11.821"/><feGaussianBlur stdDeviation="14.777"/><feColorMatrix values="0 0 0 0 0.196078 0 0 0 0 0.196078 0 0 0 0 0.364706 0 0 0 0.25 0"/><feBlend in2="effect1_dropShadow_12_195" result="effect2_dropShadow_12_195"/><feColorMatrix in="SourceAlpha" result="hardAlpha" values="0 0 0 0 0 0 0 0 0 0 0 0 0 0 0 0 0 0 127 0"/><feOffset/><feGaussianBlur stdDeviation="5.911"/><feComposite in2="hardAlpha" operator="out"/><feColorMatrix values="0 0 0 0 0 0 0 0 0 0 0 0 0 0 0 0 0 0 0.1 0"/><feBlend in2="effect2_dropShadow_12_195" result="effect3_dropShadow_12_195"/><feBlend in="SourceGraphic" in2="effect3_dropShadow_12_195" result="shape"/></filter></defs></svg>