<svg xmlns="http://www.w3.org/2000/svg" width="349" height="397" fill="none"><g filter="url(#a)"><path fill="#fff" d="M71.889 60.131c56.447-56.532 147.966-56.532 204.413 0 56.447 56.533 56.447 148.19 0 204.722l-81.781 81.904c-11.28 11.298-29.57 11.298-40.851 0l-81.781-81.904c-56.447-56.532-56.447-148.189 0-204.722Z"/></g><rect width="239.939" height="239.939" x="54.126" y="42.304" fill="#1A73E8" rx="119.631"/><path fill="#fff" d="M132.167 185.856a15.738 15.738 0 0 0 5.241 11.636v9.328a5.245 5.245 0 0 0 5.241 5.241h5.241a5.242 5.242 0 0 0 5.241-5.241v-5.24h41.927v5.24a5.244 5.244 0 0 0 5.241 5.241h5.241a5.245 5.245 0 0 0 5.241-5.241v-9.328a15.736 15.736 0 0 0 5.241-11.635v-52.409c0-18.343-18.764-20.963-41.927-20.963-23.164 0-41.928 2.62-41.928 20.963v52.408Zm18.344 5.242a7.862 7.862 0 1 1 0-15.723 7.862 7.862 0 0 1 0 15.723Zm47.168 0a7.862 7.862 0 1 1 0-15.723 7.862 7.862 0 0 1 0 15.723Zm7.861-31.445h-62.891v-26.205h62.891v26.205Z"/><defs><filter id="a" width="348.191" height="396.606" x="0" y="0" color-interpolation-filters="sRGB" filterUnits="userSpaceOnUse"><feFlood flood-opacity="0" result="BackgroundImageFix"/><feColorMatrix in="SourceAlpha" result="hardAlpha" values="0 0 0 0 0 0 0 0 0 0 0 0 0 0 0 0 0 0 127 0"/><feOffset dy="5.911"/><feGaussianBlur stdDeviation="8.866"/><feColorMatrix values="0 0 0 0 0 0 0 0 0 0 0 0 0 0 0 0 0 0 0.3 0"/><feBlend in2="BackgroundImageFix" result="effect1_dropShadow_12_177"/><feColorMatrix in="SourceAlpha" result="hardAlpha" values="0 0 0 0 0 0 0 0 0 0 0 0 0 0 0 0 0 0 127 0"/><feOffset dy="11.821"/><feGaussianBlur stdDeviation="14.777"/><feColorMatrix values="0 0 0 0 0.196078 0 0 0 0 0.196078 0 0 0 0 0.364706 0 0 0 0.25 0"/><feBlend in2="effect1_dropShadow_12_177" result="effect2_dropShadow_12_177"/><feColorMatrix in="SourceAlpha" result="hardAlpha" values="0 0 0 0 0 0 0 0 0 0 0 0 0 0 0 0 0 0 127 0"/><feOffset/><feGaussianBlur stdDeviation="5.911"/><feComposite in2="hardAlpha" operator="out"/><feColorMatrix values="0 0 0 0 0 0 0 0 0 0 0 0 0 0 0 0 0 0 0.1 0"/><feBlend in2="effect2_dropShadow_12_177" result="effect3_dropShadow_12_177"/><feBlend in="SourceGraphic" in2="effect3_dropShadow_12_177" result="shape"/></filter></defs></svg>