<svg xmlns="http://www.w3.org/2000/svg" width="349" height="397" fill="none"><g filter="url(#a)"><path fill="#fff" d="M71.889 60.131c56.447-56.532 147.966-56.532 204.413 0 56.447 56.533 56.447 148.19 0 204.722l-81.781 81.904c-11.28 11.298-29.57 11.298-40.851 0l-81.781-81.904c-56.447-56.532-56.447-148.189 0-204.722Z"/></g><rect width="239.939" height="239.939" x="54.126" y="42.304" fill="#0597FF" rx="119.631"/><path fill="#fff" fill-rule="evenodd" d="M191.292 112.273c1.547 0 2.803 1.222 2.803 2.491l-.012 57.66c2.759 1.778 10.608 6.076 15.834 1.349 6.438-5.817-.581-10.697-.581-22.091l.03.972c-1.561-.557-2.9-1.531-3.84-2.792-.941-1.262-1.44-2.753-1.431-4.277v-12.077c0-3.125 2.031-5.805 5.007-6.973l-.009-9.715h10.002l.004 9.723c1.491.589 2.759 1.563 3.647 2.801a7.067 7.067 0 0 1 1.349 4.164v12.077c0 3.272-2.232 6.064-5.445 7.131-.881 8.036 5.1 18.398-.4 25.494-8.018 9.445-20.515 4.901-24.145 3.29l-.01 17.136h14.998v13.637h-84.998v-13.637h15.001v-83.872c0-1.373 1.148-2.491 2.801-2.491h49.395Zm-9.697 13.638h-30v27.271h30v-27.271Z" clip-rule="evenodd"/><defs><filter id="a" width="348.191" height="396.606" x="0" y="0" color-interpolation-filters="sRGB" filterUnits="userSpaceOnUse"><feFlood flood-opacity="0" result="BackgroundImageFix"/><feColorMatrix in="SourceAlpha" result="hardAlpha" values="0 0 0 0 0 0 0 0 0 0 0 0 0 0 0 0 0 0 127 0"/><feOffset dy="5.911"/><feGaussianBlur stdDeviation="8.866"/><feColorMatrix values="0 0 0 0 0 0 0 0 0 0 0 0 0 0 0 0 0 0 0.3 0"/><feBlend in2="BackgroundImageFix" result="effect1_dropShadow_12_157"/><feColorMatrix in="SourceAlpha" result="hardAlpha" values="0 0 0 0 0 0 0 0 0 0 0 0 0 0 0 0 0 0 127 0"/><feOffset dy="11.821"/><feGaussianBlur stdDeviation="14.777"/><feColorMatrix values="0 0 0 0 0.196078 0 0 0 0 0.196078 0 0 0 0 0.364706 0 0 0 0.25 0"/><feBlend in2="effect1_dropShadow_12_157" result="effect2_dropShadow_12_157"/><feColorMatrix in="SourceAlpha" result="hardAlpha" values="0 0 0 0 0 0 0 0 0 0 0 0 0 0 0 0 0 0 127 0"/><feOffset/><feGaussianBlur stdDeviation="5.911"/><feComposite in2="hardAlpha" operator="out"/><feColorMatrix values="0 0 0 0 0 0 0 0 0 0 0 0 0 0 0 0 0 0 0.1 0"/><feBlend in2="effect2_dropShadow_12_157" result="effect3_dropShadow_12_157"/><feBlend in="SourceGraphic" in2="effect3_dropShadow_12_157" result="shape"/></filter></defs></svg>