<svg xmlns="http://www.w3.org/2000/svg" width="349" height="397" fill="none"><g filter="url(#a)"><path fill="#fff" d="M71.889 60.131c56.447-56.532 147.966-56.532 204.413 0 56.447 56.533 56.447 148.19 0 204.722l-81.781 81.904c-11.28 11.298-29.57 11.298-40.851 0l-81.781-81.904c-56.447-56.532-56.447-148.189 0-204.722Z"/></g><rect width="239.939" height="239.939" x="54.126" y="42.304" fill="#B56AFF" rx="119.631"/><path fill="#fff" fill-rule="evenodd" d="m206.241 104.218.007.102c2.322-.023 4.535 1.26 5.704 4.767 1.438 4.314.751 10.363-2.112 11.073-2.866.706-5.881.194-7.319-4.124a13.582 13.582 0 0 1-.574-2.523l-56.083-.007v16.256h10.386a5.875 5.875 0 0 1 4.665 2.276c.321.254.64.571.943.937l8.771 10.592c2.468 2.981 2.996 8.177 1.172 11.628l-11.186 21.133 21.124 33.795c1.782 2.849 1.211 6.488-1.243 8.585l-.588.412-.57.311c-2.943 1.292-6.472.31-8.323-2.564l-24.845-38.589-.306-.139v36.328c0 2.943-2.131 5.38-4.942 5.799l-.864.063c-3.206 0-5.806-2.603-5.806-5.862V175.1c0-1.227.37-2.364 1.006-3.308.05-.198.116-.392.211-.584l14.983-29.835h-11.476c-2.609 0-4.724-1.999-4.724-4.556v-28.044c0-2.516 2.023-4.555 4.724-4.555h67.265Zm-3.915 92.889c6.412 0 11.611 5.198 11.611 11.611 0 6.412-5.199 11.611-11.611 11.611-6.412 0-11.611-5.199-11.611-11.611 0-6.413 5.199-11.611 11.611-11.611Zm-21.589-75.348c5.769 0 10.45 4.678 10.45 10.45 0 5.769-4.681 10.45-10.45 10.45-5.773 0-10.45-4.681-10.45-10.45 0-5.772 4.677-10.45 10.45-10.45Z" clip-rule="evenodd"/><defs><filter id="a" width="348.191" height="396.606" x="0" y="0" color-interpolation-filters="sRGB" filterUnits="userSpaceOnUse"><feFlood flood-opacity="0" result="BackgroundImageFix"/><feColorMatrix in="SourceAlpha" result="hardAlpha" values="0 0 0 0 0 0 0 0 0 0 0 0 0 0 0 0 0 0 127 0"/><feOffset dy="5.911"/><feGaussianBlur stdDeviation="8.866"/><feColorMatrix values="0 0 0 0 0 0 0 0 0 0 0 0 0 0 0 0 0 0 0.3 0"/><feBlend in2="BackgroundImageFix" result="effect1_dropShadow_12_247"/><feColorMatrix in="SourceAlpha" result="hardAlpha" values="0 0 0 0 0 0 0 0 0 0 0 0 0 0 0 0 0 0 127 0"/><feOffset dy="11.821"/><feGaussianBlur stdDeviation="14.777"/><feColorMatrix values="0 0 0 0 0.196078 0 0 0 0 0.196078 0 0 0 0 0.364706 0 0 0 0.25 0"/><feBlend in2="effect1_dropShadow_12_247" result="effect2_dropShadow_12_247"/><feColorMatrix in="SourceAlpha" result="hardAlpha" values="0 0 0 0 0 0 0 0 0 0 0 0 0 0 0 0 0 0 127 0"/><feOffset/><feGaussianBlur stdDeviation="5.911"/><feComposite in2="hardAlpha" operator="out"/><feColorMatrix values="0 0 0 0 0 0 0 0 0 0 0 0 0 0 0 0 0 0 0.1 0"/><feBlend in2="effect2_dropShadow_12_247" result="effect3_dropShadow_12_247"/><feBlend in="SourceGraphic" in2="effect3_dropShadow_12_247" result="shape"/></filter></defs></svg>