<svg xmlns="http://www.w3.org/2000/svg" width="349" height="397" fill="none"><g filter="url(#a)"><path fill="#fff" d="M71.889 60.131c56.447-56.532 147.966-56.532 204.413 0 56.447 56.533 56.447 148.19 0 204.722l-81.781 81.904c-11.28 11.298-29.57 11.298-40.851 0l-81.781-81.904c-56.447-56.532-56.447-148.189 0-204.722Z"/></g><rect width="239.939" height="239.939" x="54.126" y="42.304" fill="#0597FF" rx="119.631"/><path fill="#fff" fill-rule="evenodd" d="M155.913 194.091a9.09 9.09 0 0 1 9.091 9.091 9.09 9.09 0 0 1-9.091 9.091 9.09 9.09 0 0 1-9.091-9.091 9.09 9.09 0 0 1 9.091-9.091Zm54.545 0a9.09 9.09 0 0 1 9.091 9.091 9.09 9.09 0 0 1-9.091 9.091 9.089 9.089 0 0 1-9.09-9.091 9.089 9.089 0 0 1 9.09-9.091Zm-58.097-18.182-2.39-9.091h-.038l-9.894-36.363h.045l-2.098-9.091h-13.814c-2.555 0-4.623-2.107-4.623-4.546 0-2.509 2.037-4.545 4.629-4.545h22.661c1.282 0 2.712.973 3.167 2.107l2.788 6.984h-.012l3.157 9.091h72.701l-9.238 36.363h-54.398v9.091H210.5c2.211 0 4.051 1.667 4.43 3.747l.074.799c0 2.51-1.965 4.545-4.631 4.545h-49.771c-2.556 0-5.391-1.926-6.3-4.226l-1.919-4.865h-.022Z" clip-rule="evenodd"/><defs><filter id="a" width="348.191" height="396.606" x="0" y="0" color-interpolation-filters="sRGB" filterUnits="userSpaceOnUse"><feFlood flood-opacity="0" result="BackgroundImageFix"/><feColorMatrix in="SourceAlpha" result="hardAlpha" values="0 0 0 0 0 0 0 0 0 0 0 0 0 0 0 0 0 0 127 0"/><feOffset dy="5.911"/><feGaussianBlur stdDeviation="8.866"/><feColorMatrix values="0 0 0 0 0 0 0 0 0 0 0 0 0 0 0 0 0 0 0.3 0"/><feBlend in2="BackgroundImageFix" result="effect1_dropShadow_12_151"/><feColorMatrix in="SourceAlpha" result="hardAlpha" values="0 0 0 0 0 0 0 0 0 0 0 0 0 0 0 0 0 0 127 0"/><feOffset dy="11.821"/><feGaussianBlur stdDeviation="14.777"/><feColorMatrix values="0 0 0 0 0.196078 0 0 0 0 0.196078 0 0 0 0 0.364706 0 0 0 0.25 0"/><feBlend in2="effect1_dropShadow_12_151" result="effect2_dropShadow_12_151"/><feColorMatrix in="SourceAlpha" result="hardAlpha" values="0 0 0 0 0 0 0 0 0 0 0 0 0 0 0 0 0 0 127 0"/><feOffset/><feGaussianBlur stdDeviation="5.911"/><feComposite in2="hardAlpha" operator="out"/><feColorMatrix values="0 0 0 0 0 0 0 0 0 0 0 0 0 0 0 0 0 0 0.1 0"/><feBlend in2="effect2_dropShadow_12_151" result="effect3_dropShadow_12_151"/><feBlend in="SourceGraphic" in2="effect3_dropShadow_12_151" result="shape"/></filter></defs></svg>