<svg xmlns="http://www.w3.org/2000/svg" width="349" height="397" fill="none"><g filter="url(#a)"><path fill="#fff" d="M71.889 60.131c56.447-56.532 147.966-56.532 204.413 0 56.447 56.533 56.447 148.19 0 204.722l-81.781 81.904c-11.28 11.298-29.57 11.298-40.851 0l-81.781-81.904c-56.447-56.532-56.447-148.189 0-204.722Z"/></g><rect width="239.939" height="239.939" x="54.126" y="42.304" fill="#B56AFF" rx="119.631"/><g clip-path="url(#b)"><path fill="#fff" fill-rule="evenodd" d="M199.079 157.718v.071l6.784 36.317c11.735-.486 17.044 10.783 18.037 13.175l.176.443.019 4.538h-100l.018-4.538.177-.443c.993-2.392 6.301-13.66 18.037-13.175l6.784-36.317v-.071h49.968Zm-47.697-45.445v18.178h9.09v-18.178h27.246v18.178h9.09v-18.178h18.178l-9.091 36.356h-63.601l-9.09-36.356h18.178Z" clip-rule="evenodd"/></g><defs><clipPath id="b"><path fill="#fff" d="M124.095 112.273h100v100h-100z"/></clipPath><filter id="a" width="348.191" height="396.606" x="0" y="0" color-interpolation-filters="sRGB" filterUnits="userSpaceOnUse"><feFlood flood-opacity="0" result="BackgroundImageFix"/><feColorMatrix in="SourceAlpha" result="hardAlpha" values="0 0 0 0 0 0 0 0 0 0 0 0 0 0 0 0 0 0 127 0"/><feOffset dy="5.911"/><feGaussianBlur stdDeviation="8.866"/><feColorMatrix values="0 0 0 0 0 0 0 0 0 0 0 0 0 0 0 0 0 0 0.3 0"/><feBlend in2="BackgroundImageFix" result="effect1_dropShadow_12_241"/><feColorMatrix in="SourceAlpha" result="hardAlpha" values="0 0 0 0 0 0 0 0 0 0 0 0 0 0 0 0 0 0 127 0"/><feOffset dy="11.821"/><feGaussianBlur stdDeviation="14.777"/><feColorMatrix values="0 0 0 0 0.196078 0 0 0 0 0.196078 0 0 0 0 0.364706 0 0 0 0.25 0"/><feBlend in2="effect1_dropShadow_12_241" result="effect2_dropShadow_12_241"/><feColorMatrix in="SourceAlpha" result="hardAlpha" values="0 0 0 0 0 0 0 0 0 0 0 0 0 0 0 0 0 0 127 0"/><feOffset/><feGaussianBlur stdDeviation="5.911"/><feComposite in2="hardAlpha" operator="out"/><feColorMatrix values="0 0 0 0 0 0 0 0 0 0 0 0 0 0 0 0 0 0 0.1 0"/><feBlend in2="effect2_dropShadow_12_241" result="effect3_dropShadow_12_241"/><feBlend in="SourceGraphic" in2="effect3_dropShadow_12_241" result="shape"/></filter></defs></svg>