<svg xmlns="http://www.w3.org/2000/svg" width="349" height="397" fill="none"><g filter="url(#a)"><path fill="#fff" d="M71.889 60.131c56.447-56.532 147.966-56.532 204.413 0 56.447 56.533 56.447 148.19 0 204.722l-81.781 81.904c-11.28 11.298-29.57 11.298-40.851 0l-81.781-81.904c-56.447-56.532-56.447-148.189 0-204.722Z"/></g><rect width="239.939" height="239.939" x="54.126" y="42.304" fill="#F848C7" rx="119.631"/><g clip-path="url(#b)"><path fill="#fff" fill-rule="evenodd" d="M122.65 123.588c2.368 0 4.288 1.857 4.288 4.255l-.007 42.689h83.967v-.013l-47.307.007v-36.484s9.551 1.279 12.891 1.279c16.623 0 30.96 16.079 37.212 25.076l7.525-27.593.023 8.729.01-6.643c0-2.059 1.522-3.778 3.443-4.172l.845-.086c2.365 0 4.285 1.963 4.285 4.258v63.822h-8.573l-.01-14.085h-94.31l.007 14.085h-8.574v-70.869c.001-2.056 1.522-3.771 3.443-4.169l.842-.086Zm23.58 11.736c7.104 0 12.861 6.309 12.861 14.089 0 7.777-5.757 14.085-12.861 14.085-7.103 0-12.861-6.308-12.861-14.085 0-7.78 5.758-14.089 12.861-14.089Z" clip-rule="evenodd"/></g><defs><clipPath id="b"><path fill="#fff" d="M120.473 128.201h107.244v68.144H120.473z"/></clipPath><filter id="a" width="348.191" height="396.606" x="0" y="0" color-interpolation-filters="sRGB" filterUnits="userSpaceOnUse"><feFlood flood-opacity="0" result="BackgroundImageFix"/><feColorMatrix in="SourceAlpha" result="hardAlpha" values="0 0 0 0 0 0 0 0 0 0 0 0 0 0 0 0 0 0 127 0"/><feOffset dy="5.911"/><feGaussianBlur stdDeviation="8.866"/><feColorMatrix values="0 0 0 0 0 0 0 0 0 0 0 0 0 0 0 0 0 0 0.3 0"/><feBlend in2="BackgroundImageFix" result="effect1_dropShadow_12_262"/><feColorMatrix in="SourceAlpha" result="hardAlpha" values="0 0 0 0 0 0 0 0 0 0 0 0 0 0 0 0 0 0 127 0"/><feOffset dy="11.821"/><feGaussianBlur stdDeviation="14.777"/><feColorMatrix values="0 0 0 0 0.196078 0 0 0 0 0.196078 0 0 0 0 0.364706 0 0 0 0.25 0"/><feBlend in2="effect1_dropShadow_12_262" result="effect2_dropShadow_12_262"/><feColorMatrix in="SourceAlpha" result="hardAlpha" values="0 0 0 0 0 0 0 0 0 0 0 0 0 0 0 0 0 0 127 0"/><feOffset/><feGaussianBlur stdDeviation="5.911"/><feComposite in2="hardAlpha" operator="out"/><feColorMatrix values="0 0 0 0 0 0 0 0 0 0 0 0 0 0 0 0 0 0 0.1 0"/><feBlend in2="effect2_dropShadow_12_262" result="effect3_dropShadow_12_262"/><feBlend in="SourceGraphic" in2="effect3_dropShadow_12_262" result="shape"/></filter></defs></svg>