<svg xmlns="http://www.w3.org/2000/svg" width="349" height="397" fill="none"><g filter="url(#a)"><path fill="#fff" d="M71.889 60.131c56.447-56.532 147.966-56.532 204.413 0 56.447 56.533 56.447 148.19 0 204.722l-81.781 81.904c-11.28 11.298-29.57 11.298-40.851 0l-81.781-81.904c-56.447-56.532-56.447-148.189 0-204.722Z"/></g><rect width="239.939" height="239.939" x="54.126" y="42.304" fill="#B56AFF" rx="119.631"/><g clip-path="url(#b)"><path fill="#fff" fill-rule="evenodd" d="m174.095 101.746 50 36.364v9.091h-9.091v50h9.091v9.091h-100v-9.091h9.091v-50h-9.091v-9.091l50-36.364Zm31.818 36.364h-63.636v59.091h63.636V138.11Zm-45.461 9.075 13.693 19.449 13.586-19.324v-.109h9.091v40.909h-9.091v-24.873l-13.586 21.712-13.696-21.594.009 24.755h-9.091v-40.909h9.091l-.006-.016Z" clip-rule="evenodd"/></g><defs><clipPath id="b"><path fill="#fff" d="M124.095 97.2h100v109.092h-100z"/></clipPath><filter id="a" width="348.191" height="396.606" x="0" y="0" color-interpolation-filters="sRGB" filterUnits="userSpaceOnUse"><feFlood flood-opacity="0" result="BackgroundImageFix"/><feColorMatrix in="SourceAlpha" result="hardAlpha" values="0 0 0 0 0 0 0 0 0 0 0 0 0 0 0 0 0 0 127 0"/><feOffset dy="5.911"/><feGaussianBlur stdDeviation="8.866"/><feColorMatrix values="0 0 0 0 0 0 0 0 0 0 0 0 0 0 0 0 0 0 0.3 0"/><feBlend in2="BackgroundImageFix" result="effect1_dropShadow_12_214"/><feColorMatrix in="SourceAlpha" result="hardAlpha" values="0 0 0 0 0 0 0 0 0 0 0 0 0 0 0 0 0 0 127 0"/><feOffset dy="11.821"/><feGaussianBlur stdDeviation="14.777"/><feColorMatrix values="0 0 0 0 0.196078 0 0 0 0 0.196078 0 0 0 0 0.364706 0 0 0 0.25 0"/><feBlend in2="effect1_dropShadow_12_214" result="effect2_dropShadow_12_214"/><feColorMatrix in="SourceAlpha" result="hardAlpha" values="0 0 0 0 0 0 0 0 0 0 0 0 0 0 0 0 0 0 127 0"/><feOffset/><feGaussianBlur stdDeviation="5.911"/><feComposite in2="hardAlpha" operator="out"/><feColorMatrix values="0 0 0 0 0 0 0 0 0 0 0 0 0 0 0 0 0 0 0.1 0"/><feBlend in2="effect2_dropShadow_12_214" result="effect3_dropShadow_12_214"/><feBlend in="SourceGraphic" in2="effect3_dropShadow_12_214" result="shape"/></filter></defs></svg>