<svg xmlns="http://www.w3.org/2000/svg" width="349" height="397" fill="none"><g filter="url(#a)"><path fill="#fff" d="M71.889 60.131c56.447-56.532 147.966-56.532 204.413 0 56.447 56.533 56.447 148.19 0 204.722l-81.781 81.904c-11.28 11.298-29.57 11.298-40.851 0l-81.781-81.904c-56.447-56.532-56.447-148.189 0-204.722Z"/></g><rect width="239.939" height="239.939" x="54.126" y="42.304" fill="#F74A55" rx="119.631"/><path fill="#fff" fill-rule="evenodd" d="m202.682 109.201-8.195 24.599 32.94.007-16.478 40.875 8.24 32.876-45.175-.011-.006-.03-45.007.018 8.24-32.879-16.478-40.873h53.25v.024l12.281-.006-8.186-.003 8.241-24.597h16.333Zm-24.571 40.988h-8.192l-.002 16.377-16.383.009v8.191l16.383-.006.002 16.389h8.192l-.003-16.389 16.386.006v-8.191l-16.386-.009.003-16.377Z" clip-rule="evenodd"/><defs><filter id="a" width="348.191" height="396.606" x="0" y="0" color-interpolation-filters="sRGB" filterUnits="userSpaceOnUse"><feFlood flood-opacity="0" result="BackgroundImageFix"/><feColorMatrix in="SourceAlpha" result="hardAlpha" values="0 0 0 0 0 0 0 0 0 0 0 0 0 0 0 0 0 0 127 0"/><feOffset dy="5.911"/><feGaussianBlur stdDeviation="8.866"/><feColorMatrix values="0 0 0 0 0 0 0 0 0 0 0 0 0 0 0 0 0 0 0.3 0"/><feBlend in2="BackgroundImageFix" result="effect1_dropShadow_12_254"/><feColorMatrix in="SourceAlpha" result="hardAlpha" values="0 0 0 0 0 0 0 0 0 0 0 0 0 0 0 0 0 0 127 0"/><feOffset dy="11.821"/><feGaussianBlur stdDeviation="14.777"/><feColorMatrix values="0 0 0 0 0.196078 0 0 0 0 0.196078 0 0 0 0 0.364706 0 0 0 0.25 0"/><feBlend in2="effect1_dropShadow_12_254" result="effect2_dropShadow_12_254"/><feColorMatrix in="SourceAlpha" result="hardAlpha" values="0 0 0 0 0 0 0 0 0 0 0 0 0 0 0 0 0 0 127 0"/><feOffset/><feGaussianBlur stdDeviation="5.911"/><feComposite in2="hardAlpha" operator="out"/><feColorMatrix values="0 0 0 0 0 0 0 0 0 0 0 0 0 0 0 0 0 0 0.1 0"/><feBlend in2="effect2_dropShadow_12_254" result="effect3_dropShadow_12_254"/><feBlend in="SourceGraphic" in2="effect3_dropShadow_12_254" result="shape"/></filter></defs></svg>