<svg xmlns="http://www.w3.org/2000/svg" width="349" height="397" fill="none"><g filter="url(#a)"><path fill="#fff" d="M71.889 60.131c56.447-56.532 147.966-56.532 204.413 0 56.447 56.533 56.447 148.19 0 204.722l-81.781 81.904c-11.28 11.298-29.57 11.298-40.851 0l-81.781-81.904c-56.447-56.532-56.447-148.189 0-204.722Z"/></g><rect width="239.939" height="239.939" x="54.126" y="42.304" fill="#697AD4" rx="119.631"/><path fill="#fff" fill-rule="evenodd" d="m190.979 167.842 10.577 8.491.095 7.987h5.471l5.442 5.661.108 5.212 5.537.085 5.085 5.514h.369v5.5h-99.047v-5.5h.105l5.632-5.421 5.441-.063-.092-5.441 5.764-5.471 5.31-.115.025-8.201 10.943-8.215v5.563l5.47-.059 5.227 5.425.297 5.395 11.033.076.04-5.455 5.496-5.566 5.228.04.444-5.442Zm40.859-38.585 2.743.093-.187 65.649-32.66-32.64-.079-5.343 5.523-5.678 5.388.029.188-5.556 5.283-5.503 5.536-.007.027-2.589 8.238-8.455Zm-115.489-.039 8.237 8.451.029 2.592 5.537.007 5.283 5.504.188 5.556 5.388-.033 5.523 5.678-.078 5.343-32.66 32.64-.187-65.646 2.74-.092Zm107.314-10.965v5.501h-.126l-5.302 5.448h-5.502l-.183 5.441-5.333 5.618-5.441-.046v5.557l-5.651 5.503h-5.507v5.474l-5.56 5.54h-5.401l-.031 5.5h-10.882v-5.604h-5.569l-5.451-5.435v-5.475l-5.412-.036-5.655-5.468v-5.51h-5.405l-5.582-5.619v-5.389s-2.225-.019-3.339-.033c-.302 0-.726-.003-1.128-.01l-1.142-.009-5.316-5.448h-.129v-5.5h99.047Z" clip-rule="evenodd"/><defs><filter id="a" width="348.191" height="396.606" x="0" y="0" color-interpolation-filters="sRGB" filterUnits="userSpaceOnUse"><feFlood flood-opacity="0" result="BackgroundImageFix"/><feColorMatrix in="SourceAlpha" result="hardAlpha" values="0 0 0 0 0 0 0 0 0 0 0 0 0 0 0 0 0 0 127 0"/><feOffset dy="5.911"/><feGaussianBlur stdDeviation="8.866"/><feColorMatrix values="0 0 0 0 0 0 0 0 0 0 0 0 0 0 0 0 0 0 0.3 0"/><feBlend in2="BackgroundImageFix" result="effect1_dropShadow_12_200"/><feColorMatrix in="SourceAlpha" result="hardAlpha" values="0 0 0 0 0 0 0 0 0 0 0 0 0 0 0 0 0 0 127 0"/><feOffset dy="11.821"/><feGaussianBlur stdDeviation="14.777"/><feColorMatrix values="0 0 0 0 0.196078 0 0 0 0 0.196078 0 0 0 0 0.364706 0 0 0 0.25 0"/><feBlend in2="effect1_dropShadow_12_200" result="effect2_dropShadow_12_200"/><feColorMatrix in="SourceAlpha" result="hardAlpha" values="0 0 0 0 0 0 0 0 0 0 0 0 0 0 0 0 0 0 127 0"/><feOffset/><feGaussianBlur stdDeviation="5.911"/><feComposite in2="hardAlpha" operator="out"/><feColorMatrix values="0 0 0 0 0 0 0 0 0 0 0 0 0 0 0 0 0 0 0.1 0"/><feBlend in2="effect2_dropShadow_12_200" result="effect3_dropShadow_12_200"/><feBlend in="SourceGraphic" in2="effect3_dropShadow_12_200" result="shape"/></filter></defs></svg>