<svg xmlns="http://www.w3.org/2000/svg" width="349" height="397" fill="none"><g filter="url(#a)"><mask id="b" fill="#fff"><path d="M71.889 60.131c56.447-56.532 147.966-56.532 204.413 0 56.447 56.533 56.447 148.19 0 204.722l-81.781 81.904c-11.28 11.298-29.57 11.298-40.851 0l-81.781-81.904c-56.447-56.532-56.447-148.189 0-204.722Z"/></mask><path fill="#EA4335" d="M71.889 60.131c56.447-56.532 147.966-56.532 204.413 0 56.447 56.533 56.447 148.19 0 204.722l-81.781 81.904c-11.28 11.298-29.57 11.298-40.851 0l-81.781-81.904c-56.447-56.532-56.447-148.189 0-204.722Z"/><path fill="#B31412" d="m71.889 60.131-4.246-4.24v.001l4.246 4.24Zm204.413 0 4.246-4.24-4.246 4.24Zm0 204.722-4.246-4.239 4.246 4.239Zm-81.781 81.904 4.246 4.24-4.246-4.24Zm-40.851 0-4.246 4.24 4.246-4.24Zm-81.781-81.904-4.246 4.239v.001l4.246-4.24Zm0-204.722 4.246 4.24c54.103-54.185 141.818-54.185 195.921 0l4.246-4.24 4.246-4.24c-58.791-58.879-154.114-58.879-212.905 0l4.246 4.24Zm204.413 0-4.246 4.24c54.108 54.19 54.108 142.053 0 196.243l4.246 4.239 4.246 4.239c58.786-58.874 58.786-154.325 0-213.2l-4.246 4.24Zm0 204.722-4.246-4.239-81.78 81.904 4.245 4.239 4.246 4.24 81.781-81.905-4.246-4.239Zm-81.781 81.904-4.245-4.239c-8.937 8.95-23.423 8.95-32.36 0l-4.246 4.239-4.246 4.24c13.625 13.645 35.719 13.645 49.343 0l-4.246-4.24Zm-40.851 0 4.246-4.239-81.781-81.904-4.246 4.239-4.246 4.24 81.781 81.904 4.246-4.24Zm-81.781-81.904 4.246-4.239c-54.109-54.19-54.108-142.053 0-196.243l-4.246-4.24-4.246-4.239c-58.786 58.875-58.786 154.326 0 213.2l4.246-4.239Z" mask="url(#b)"/></g><rect width="180" height="180" x="84.553" y="72.732" fill="#B31412" rx="90"/><defs><filter id="a" width="348.191" height="396.606" x="0" y="0" color-interpolation-filters="sRGB" filterUnits="userSpaceOnUse"><feFlood flood-opacity="0" result="BackgroundImageFix"/><feColorMatrix in="SourceAlpha" result="hardAlpha" values="0 0 0 0 0 0 0 0 0 0 0 0 0 0 0 0 0 0 127 0"/><feOffset dy="5.911"/><feGaussianBlur stdDeviation="8.866"/><feColorMatrix values="0 0 0 0 0 0 0 0 0 0 0 0 0 0 0 0 0 0 0.3 0"/><feBlend in2="BackgroundImageFix" result="effect1_dropShadow_12_124"/><feColorMatrix in="SourceAlpha" result="hardAlpha" values="0 0 0 0 0 0 0 0 0 0 0 0 0 0 0 0 0 0 127 0"/><feOffset dy="11.821"/><feGaussianBlur stdDeviation="14.777"/><feColorMatrix values="0 0 0 0 0.196078 0 0 0 0 0.196078 0 0 0 0 0.364706 0 0 0 0.25 0"/><feBlend in2="effect1_dropShadow_12_124" result="effect2_dropShadow_12_124"/><feColorMatrix in="SourceAlpha" result="hardAlpha" values="0 0 0 0 0 0 0 0 0 0 0 0 0 0 0 0 0 0 127 0"/><feOffset/><feGaussianBlur stdDeviation="5.911"/><feComposite in2="hardAlpha" operator="out"/><feColorMatrix values="0 0 0 0 0 0 0 0 0 0 0 0 0 0 0 0 0 0 0.1 0"/><feBlend in2="effect2_dropShadow_12_124" result="effect3_dropShadow_12_124"/><feBlend in="SourceGraphic" in2="effect3_dropShadow_12_124" result="shape"/></filter></defs></svg>