<svg xmlns="http://www.w3.org/2000/svg" width="349" height="397" fill="none"><g filter="url(#a)"><path fill="#fff" d="M71.889 60.131c56.447-56.532 147.966-56.532 204.413 0 56.447 56.533 56.447 148.19 0 204.722l-81.781 81.904c-11.28 11.298-29.57 11.298-40.851 0l-81.781-81.904c-56.447-56.532-56.447-148.189 0-204.722Z"/></g><rect width="239.939" height="239.939" x="54.125" y="42.304" fill="#FF8126" rx="119.631"/><path fill="#fff" d="M203.202 173.662v48.092h17.717V105.322h-17.717l-10.124 20.251v32.906l10.124 15.183Zm-40.498-15.184v5.06l20.251-10.124v-37.967l-12.658-10.124v37.968h-10.124v-40.498h-10.122v40.498h-10.128v-37.968l-12.653 10.124v37.968l20.248 10.124v-5.061 63.276h15.186v-63.276Z"/><defs><filter id="a" width="348.191" height="396.606" x="0" y="0" color-interpolation-filters="sRGB" filterUnits="userSpaceOnUse"><feFlood flood-opacity="0" result="BackgroundImageFix"/><feColorMatrix in="SourceAlpha" result="hardAlpha" values="0 0 0 0 0 0 0 0 0 0 0 0 0 0 0 0 0 0 127 0"/><feOffset dy="5.911"/><feGaussianBlur stdDeviation="8.866"/><feColorMatrix values="0 0 0 0 0 0 0 0 0 0 0 0 0 0 0 0 0 0 0.3 0"/><feBlend in2="BackgroundImageFix" result="effect1_dropShadow_12_111"/><feColorMatrix in="SourceAlpha" result="hardAlpha" values="0 0 0 0 0 0 0 0 0 0 0 0 0 0 0 0 0 0 127 0"/><feOffset dy="11.821"/><feGaussianBlur stdDeviation="14.777"/><feColorMatrix values="0 0 0 0 0.196078 0 0 0 0 0.196078 0 0 0 0 0.364706 0 0 0 0.25 0"/><feBlend in2="effect1_dropShadow_12_111" result="effect2_dropShadow_12_111"/><feColorMatrix in="SourceAlpha" result="hardAlpha" values="0 0 0 0 0 0 0 0 0 0 0 0 0 0 0 0 0 0 127 0"/><feOffset/><feGaussianBlur stdDeviation="5.911"/><feComposite in2="hardAlpha" operator="out"/><feColorMatrix values="0 0 0 0 0 0 0 0 0 0 0 0 0 0 0 0 0 0 0.1 0"/><feBlend in2="effect2_dropShadow_12_111" result="effect3_dropShadow_12_111"/><feBlend in="SourceGraphic" in2="effect3_dropShadow_12_111" result="shape"/></filter></defs></svg>