<svg xmlns="http://www.w3.org/2000/svg" width="349" height="397" fill="none"><g filter="url(#a)"><path fill="#fff" d="M71.889 60.131c56.447-56.532 147.966-56.532 204.413 0 56.447 56.533 56.447 148.19 0 204.722l-81.781 81.904c-11.28 11.298-29.57 11.298-40.851 0l-81.781-81.904c-56.447-56.532-56.447-148.189 0-204.722Z"/></g><rect width="239.939" height="239.939" x="54.126" y="42.304" fill="#0597FF" rx="119.631"/><path fill="#fff" fill-rule="evenodd" d="M147.529 168.191c0-2.723 2.383-4.916 5.345-4.916 2.941 0 5.346 2.193 5.346 4.915 0 6.773 6.823 12.919 16.077 12.956 9.249-.037 16.041-6.183 16.063-12.956.028-2.721 2.392-4.915 5.352-4.915 2.941 0 5.361 2.193 5.361 4.915-.094 12.956-12.382 22.737-26.776 22.746-14.389-.009-26.708-9.789-26.768-22.745Zm17.103-46.425c3.23-5.936 7.125-8.347 9.686-8.218 2.526-.129 6.422 2.282 9.655 8.218 2.74 4.993 4.614 12.852 5.126 20.753h-29.606c.509-7.901 2.389-15.76 5.139-20.753Zm54.356 22.077c-.923-.85-2.229-1.324-3.55-1.324h-16.39c-1.262-19.423-8.939-36.98-24.73-38.129-15.829 1.149-23.518 18.706-24.774 38.129h-16.396c-1.318 0-2.621.474-3.553 1.324-.923.864-1.466 2.021-1.466 3.252l-3.845 52.727c0 1.208.549 2.388 1.466 3.23a5.353 5.353 0 0 0 3.553 1.337h89.984c1.343 0 2.589-.465 3.521-1.337.967-.863 1.476-1.996 1.476-3.23l-3.846-52.727c0-1.203-.531-2.388-1.45-3.252Z" clip-rule="evenodd"/><defs><filter id="a" width="348.191" height="396.606" x="0" y="0" color-interpolation-filters="sRGB" filterUnits="userSpaceOnUse"><feFlood flood-opacity="0" result="BackgroundImageFix"/><feColorMatrix in="SourceAlpha" result="hardAlpha" values="0 0 0 0 0 0 0 0 0 0 0 0 0 0 0 0 0 0 127 0"/><feOffset dy="5.911"/><feGaussianBlur stdDeviation="8.866"/><feColorMatrix values="0 0 0 0 0 0 0 0 0 0 0 0 0 0 0 0 0 0 0.3 0"/><feBlend in2="BackgroundImageFix" result="effect1_dropShadow_12_145"/><feColorMatrix in="SourceAlpha" result="hardAlpha" values="0 0 0 0 0 0 0 0 0 0 0 0 0 0 0 0 0 0 127 0"/><feOffset dy="11.821"/><feGaussianBlur stdDeviation="14.777"/><feColorMatrix values="0 0 0 0 0.196078 0 0 0 0 0.196078 0 0 0 0 0.364706 0 0 0 0.25 0"/><feBlend in2="effect1_dropShadow_12_145" result="effect2_dropShadow_12_145"/><feColorMatrix in="SourceAlpha" result="hardAlpha" values="0 0 0 0 0 0 0 0 0 0 0 0 0 0 0 0 0 0 127 0"/><feOffset/><feGaussianBlur stdDeviation="5.911"/><feComposite in2="hardAlpha" operator="out"/><feColorMatrix values="0 0 0 0 0 0 0 0 0 0 0 0 0 0 0 0 0 0 0.1 0"/><feBlend in2="effect2_dropShadow_12_145" result="effect3_dropShadow_12_145"/><feBlend in="SourceGraphic" in2="effect3_dropShadow_12_145" result="shape"/></filter></defs></svg>