<svg xmlns="http://www.w3.org/2000/svg" width="349" height="397" fill="none"><g filter="url(#a)"><path fill="#fff" d="M71.889 60.131c56.447-56.532 147.966-56.532 204.413 0 56.447 56.533 56.447 148.19 0 204.722l-81.781 81.904c-11.28 11.298-29.57 11.298-40.851 0l-81.781-81.904c-56.447-56.532-56.447-148.189 0-204.722Z"/></g><rect width="239.939" height="239.939" x="54.126" y="42.304" fill="#B56AFF" rx="119.631"/><g clip-path="url(#b)"><path fill="#fff" fill-rule="evenodd" d="M198.185 176.757c24.817 0 28.91-21.762 28.91-21.762V112.24s-7.497 11.447-28.91 11.447-28.91-11.446-28.91-11.446v25.941h19.275v38.575h9.635Zm-19.271-25.931v42.752s-4.095 21.764-28.91 21.764c-24.816 0-28.909-21.764-28.909-21.764v-42.752s7.496 11.447 28.909 11.447c21.413 0 28.91-11.447 28.91-11.447Zm-38.545 25.902h-9.639v9.636h9.639v-9.636Zm28.907 0h-9.636v9.636h9.636v-9.636Zm48.186-38.502v9.638h-9.639v-9.638h9.639Z" clip-rule="evenodd"/></g><defs><clipPath id="b"><path fill="#fff" d="M121.095 109.273h106v106h-106z"/></clipPath><filter id="a" width="348.191" height="396.606" x="0" y="0" color-interpolation-filters="sRGB" filterUnits="userSpaceOnUse"><feFlood flood-opacity="0" result="BackgroundImageFix"/><feColorMatrix in="SourceAlpha" result="hardAlpha" values="0 0 0 0 0 0 0 0 0 0 0 0 0 0 0 0 0 0 127 0"/><feOffset dy="5.911"/><feGaussianBlur stdDeviation="8.866"/><feColorMatrix values="0 0 0 0 0 0 0 0 0 0 0 0 0 0 0 0 0 0 0.3 0"/><feBlend in2="BackgroundImageFix" result="effect1_dropShadow_12_207"/><feColorMatrix in="SourceAlpha" result="hardAlpha" values="0 0 0 0 0 0 0 0 0 0 0 0 0 0 0 0 0 0 127 0"/><feOffset dy="11.821"/><feGaussianBlur stdDeviation="14.777"/><feColorMatrix values="0 0 0 0 0.196078 0 0 0 0 0.196078 0 0 0 0 0.364706 0 0 0 0.25 0"/><feBlend in2="effect1_dropShadow_12_207" result="effect2_dropShadow_12_207"/><feColorMatrix in="SourceAlpha" result="hardAlpha" values="0 0 0 0 0 0 0 0 0 0 0 0 0 0 0 0 0 0 127 0"/><feOffset/><feGaussianBlur stdDeviation="5.911"/><feComposite in2="hardAlpha" operator="out"/><feColorMatrix values="0 0 0 0 0 0 0 0 0 0 0 0 0 0 0 0 0 0 0.1 0"/><feBlend in2="effect2_dropShadow_12_207" result="effect3_dropShadow_12_207"/><feBlend in="SourceGraphic" in2="effect3_dropShadow_12_207" result="shape"/></filter></defs></svg>