<svg xmlns="http://www.w3.org/2000/svg" width="349" height="397" fill="none"><g filter="url(#a)"><path fill="#fff" d="M71.889 60.131c56.447-56.532 147.966-56.532 204.413 0 56.447 56.533 56.447 148.19 0 204.722l-81.781 81.904c-11.28 11.298-29.57 11.298-40.851 0l-81.781-81.904c-56.447-56.532-56.447-148.189 0-204.722Z"/></g><rect width="239.939" height="239.939" x="54.126" y="42.304" fill="#1A73E8" rx="119.631"/><g clip-path="url(#b)"><path fill="#fff" d="M174.095 112.485c-20.964 0-41.928 2.62-41.928 20.963v49.788a18.344 18.344 0 0 0 18.344 18.344l-7.862 7.861v2.62h11.687l10.481-10.481h19.76l10.481 10.481h10.482v-2.62l-7.861-7.861c10.132 0 18.343-8.212 18.343-18.344v-49.787c0-18.344-18.764-20.964-41.927-20.964Zm-23.584 78.613a7.863 7.863 0 0 1-7.711-9.395 7.865 7.865 0 0 1 10.719-5.729 7.869 7.869 0 0 1 4.703 5.729 7.865 7.865 0 0 1-7.711 9.395Zm18.342-36.686h-26.204v-20.964h26.205l-.001 20.964Zm10.482 0v-20.964h26.204v20.964h-26.204Zm18.343 36.686a7.856 7.856 0 0 1-7.262-4.853 7.864 7.864 0 0 1 1.704-8.567 7.865 7.865 0 0 1 4.024-2.152 7.864 7.864 0 0 1 9.395 7.71 7.86 7.86 0 0 1-7.861 7.862Z"/></g><defs><clipPath id="b"><path fill="#fff" d="M132.167 112.273h83.854v100h-83.854z"/></clipPath><filter id="a" width="348.191" height="396.606" x="0" y="0" color-interpolation-filters="sRGB" filterUnits="userSpaceOnUse"><feFlood flood-opacity="0" result="BackgroundImageFix"/><feColorMatrix in="SourceAlpha" result="hardAlpha" values="0 0 0 0 0 0 0 0 0 0 0 0 0 0 0 0 0 0 127 0"/><feOffset dy="5.911"/><feGaussianBlur stdDeviation="8.866"/><feColorMatrix values="0 0 0 0 0 0 0 0 0 0 0 0 0 0 0 0 0 0 0.3 0"/><feBlend in2="BackgroundImageFix" result="effect1_dropShadow_12_171"/><feColorMatrix in="SourceAlpha" result="hardAlpha" values="0 0 0 0 0 0 0 0 0 0 0 0 0 0 0 0 0 0 127 0"/><feOffset dy="11.821"/><feGaussianBlur stdDeviation="14.777"/><feColorMatrix values="0 0 0 0 0.196078 0 0 0 0 0.196078 0 0 0 0 0.364706 0 0 0 0.25 0"/><feBlend in2="effect1_dropShadow_12_171" result="effect2_dropShadow_12_171"/><feColorMatrix in="SourceAlpha" result="hardAlpha" values="0 0 0 0 0 0 0 0 0 0 0 0 0 0 0 0 0 0 127 0"/><feOffset/><feGaussianBlur stdDeviation="5.911"/><feComposite in2="hardAlpha" operator="out"/><feColorMatrix values="0 0 0 0 0 0 0 0 0 0 0 0 0 0 0 0 0 0 0.1 0"/><feBlend in2="effect2_dropShadow_12_171" result="effect3_dropShadow_12_171"/><feBlend in="SourceGraphic" in2="effect3_dropShadow_12_171" result="shape"/></filter></defs></svg>